<svg width="1218" height="586" viewBox="0 0 1218 586" fill="none" xmlns="http://www.w3.org/2000/svg">
<g filter="url(#filter0_d_0_11120)">
<path fill-rule="evenodd" clip-rule="evenodd" d="M48 62C48 54.268 54.268 48 62 48H1172C1179.73 48 1186 54.268 1186 62V512C1186 519.732 1179.73 526 1172 526H62C54.268 526 48 519.732 48 512V62Z" fill="white"/>
</g>
<path d="M675.216 478.72H680.144C681.349 478.72 682.288 479.024 682.96 479.632C683.632 480.229 683.968 481.072 683.968 482.16C683.968 483.248 683.632 484.096 682.96 484.704C682.288 485.312 681.349 485.616 680.144 485.616H677.28V490H675.216V478.72ZM679.888 484.032C681.307 484.032 682.016 483.413 682.016 482.176C682.016 481.547 681.84 481.083 681.488 480.784C681.136 480.475 680.603 480.32 679.888 480.32H677.28V484.032H679.888ZM690.598 483.648L689.43 483.76C688.108 483.899 687.446 484.571 687.446 485.776V490H685.446V482.176H687.35V483.552C687.756 482.613 688.593 482.101 689.862 482.016L690.47 481.968L690.598 483.648ZM694.983 490.128C694.183 490.128 693.479 489.963 692.871 489.632C692.274 489.301 691.81 488.827 691.479 488.208C691.148 487.589 690.983 486.869 690.983 486.048C690.983 485.227 691.148 484.512 691.479 483.904C691.81 483.285 692.274 482.811 692.871 482.48C693.479 482.149 694.183 481.984 694.983 481.984C695.783 481.984 696.482 482.149 697.079 482.48C697.687 482.811 698.151 483.285 698.471 483.904C698.802 484.512 698.967 485.227 698.967 486.048C698.967 486.869 698.802 487.589 698.471 488.208C698.151 488.827 697.687 489.301 697.079 489.632C696.482 489.963 695.783 490.128 694.983 490.128ZM694.967 488.576C695.618 488.576 696.114 488.363 696.455 487.936C696.796 487.509 696.967 486.88 696.967 486.048C696.967 485.227 696.796 484.603 696.455 484.176C696.114 483.739 695.623 483.52 694.983 483.52C694.343 483.52 693.847 483.739 693.495 484.176C693.154 484.603 692.983 485.227 692.983 486.048C692.983 486.88 693.154 487.509 693.495 487.936C693.836 488.363 694.327 488.576 694.967 488.576ZM706.171 478.528H708.411V480.528H706.171V478.528ZM703.115 482.176H708.283V490H706.283V483.68H703.115V490H701.115V483.68H699.611V482.176H701.115C701.115 481.045 701.414 480.197 702.011 479.632C702.609 479.056 703.51 478.741 704.715 478.688L705.403 478.656L705.499 480.144L704.747 480.176C704.15 480.208 703.729 480.357 703.483 480.624C703.238 480.88 703.115 481.269 703.115 481.792V482.176ZM714.368 488.624C714.603 488.624 714.848 488.608 715.104 488.576L715.008 490.064C714.688 490.096 714.395 490.112 714.128 490.112C713.029 490.112 712.219 489.861 711.696 489.36C711.173 488.848 710.912 488.091 710.912 487.088V483.68H709.408V482.176H710.912V479.84H712.912V482.176H714.976V483.68H712.912V487.056C712.912 488.101 713.397 488.624 714.368 488.624Z" fill="#282D32"/>
<path fill-rule="evenodd" clip-rule="evenodd" d="M652 490C655.314 490 658 487.314 658 484C658 480.686 655.314 478 652 478C648.686 478 646 480.686 646 484C646 487.314 648.686 490 652 490Z" fill="#E3B9FF"/>
<path d="M552.04 490.144C551.176 490.144 550.365 490.027 549.608 489.792C548.851 489.557 548.211 489.227 547.688 488.8L548.376 487.296C548.92 487.712 549.491 488.016 550.088 488.208C550.696 488.4 551.352 488.496 552.056 488.496C552.835 488.496 553.432 488.363 553.848 488.096C554.275 487.819 554.488 487.435 554.488 486.944C554.488 486.517 554.291 486.192 553.896 485.968C553.512 485.744 552.867 485.531 551.96 485.328C551.021 485.125 550.259 484.891 549.672 484.624C549.085 484.357 548.643 484.016 548.344 483.6C548.045 483.184 547.896 482.656 547.896 482.016C547.896 481.355 548.077 480.763 548.44 480.24C548.803 479.717 549.315 479.312 549.976 479.024C550.637 478.725 551.4 478.576 552.264 478.576C553.053 478.576 553.805 478.699 554.52 478.944C555.235 479.179 555.821 479.504 556.28 479.92L555.592 481.424C554.589 480.624 553.48 480.224 552.264 480.224C551.539 480.224 550.963 480.373 550.536 480.672C550.12 480.96 549.912 481.365 549.912 481.888C549.912 482.325 550.099 482.661 550.472 482.896C550.845 483.131 551.48 483.349 552.376 483.552C553.325 483.765 554.093 484.005 554.68 484.272C555.277 484.528 555.731 484.859 556.04 485.264C556.36 485.669 556.52 486.181 556.52 486.8C556.52 487.472 556.339 488.064 555.976 488.576C555.624 489.077 555.107 489.467 554.424 489.744C553.752 490.011 552.957 490.144 552.04 490.144ZM561.603 481.984C562.702 481.984 563.518 482.251 564.051 482.784C564.584 483.317 564.851 484.139 564.851 485.248V490H562.947V488.8C562.766 489.216 562.478 489.541 562.083 489.776C561.699 490.011 561.251 490.128 560.739 490.128C560.216 490.128 559.742 490.021 559.315 489.808C558.888 489.595 558.552 489.301 558.307 488.928C558.062 488.555 557.939 488.139 557.939 487.68C557.939 487.104 558.083 486.651 558.371 486.32C558.67 485.989 559.15 485.749 559.811 485.6C560.472 485.451 561.384 485.376 562.547 485.376H562.947V485.008C562.947 484.475 562.83 484.091 562.595 483.856C562.371 483.621 561.992 483.504 561.459 483.504C561.043 483.504 560.606 483.579 560.147 483.728C559.699 483.867 559.256 484.064 558.819 484.32L558.259 482.944C558.696 482.667 559.224 482.437 559.843 482.256C560.462 482.075 561.048 481.984 561.603 481.984ZM561.139 488.688C561.672 488.688 562.104 488.512 562.435 488.16C562.776 487.797 562.947 487.333 562.947 486.768V486.432H562.659C561.944 486.432 561.39 486.464 560.995 486.528C560.6 486.592 560.318 486.704 560.147 486.864C559.976 487.024 559.891 487.243 559.891 487.52C559.891 487.861 560.008 488.144 560.243 488.368C560.478 488.581 560.776 488.688 561.139 488.688ZM566.884 490V478.72H568.884V490H566.884ZM577.81 486.448H572.482C572.546 487.173 572.765 487.712 573.138 488.064C573.512 488.416 574.045 488.592 574.738 488.592C575.602 488.592 576.392 488.315 577.106 487.76L577.682 489.136C577.32 489.435 576.861 489.675 576.306 489.856C575.762 490.037 575.213 490.128 574.658 490.128C573.378 490.128 572.365 489.765 571.618 489.04C570.882 488.315 570.514 487.323 570.514 486.064C570.514 485.264 570.674 484.555 570.994 483.936C571.314 483.317 571.762 482.837 572.338 482.496C572.925 482.155 573.586 481.984 574.322 481.984C575.4 481.984 576.248 482.331 576.866 483.024C577.496 483.717 577.81 484.672 577.81 485.888V486.448ZM574.37 483.392C573.837 483.392 573.405 483.563 573.074 483.904C572.754 484.245 572.557 484.736 572.482 485.376H576.098C576.077 484.725 575.917 484.235 575.618 483.904C575.32 483.563 574.904 483.392 574.37 483.392ZM582.326 490.128C581.633 490.128 580.993 490.043 580.406 489.872C579.83 489.701 579.34 489.456 578.934 489.136L579.494 487.744C580.326 488.352 581.281 488.656 582.358 488.656C582.817 488.656 583.164 488.581 583.398 488.432C583.644 488.283 583.766 488.069 583.766 487.792C583.766 487.557 583.681 487.376 583.51 487.248C583.35 487.12 583.057 487.003 582.63 486.896L581.35 486.608C580.625 486.448 580.086 486.187 579.734 485.824C579.382 485.461 579.206 484.992 579.206 484.416C579.206 483.936 579.34 483.515 579.606 483.152C579.884 482.779 580.262 482.491 580.742 482.288C581.233 482.085 581.798 481.984 582.438 481.984C582.993 481.984 583.526 482.069 584.038 482.24C584.561 482.411 585.02 482.651 585.414 482.96L584.854 484.32C584.044 483.733 583.233 483.44 582.422 483.44C581.985 483.44 581.644 483.52 581.398 483.68C581.153 483.84 581.03 484.064 581.03 484.352C581.03 484.565 581.105 484.741 581.254 484.88C581.414 485.019 581.665 485.125 582.006 485.2L583.334 485.504C584.113 485.675 584.684 485.947 585.046 486.32C585.409 486.683 585.59 487.163 585.59 487.76C585.59 488.485 585.297 489.061 584.71 489.488C584.124 489.915 583.329 490.128 582.326 490.128Z" fill="#282D32"/>
<path fill-rule="evenodd" clip-rule="evenodd" d="M525 490C528.314 490 531 487.314 531 484C531 480.686 528.314 478 525 478C521.686 478 519 480.686 519 484C519 487.314 521.686 490 525 490Z" fill="#F9978A"/>
<path d="M759.021 430.264V431.248H757.785V433H756.573V431.248H752.769V430.324L756.777 424.54H757.785V430.264H759.021ZM753.981 430.264H756.573V426.52L753.981 430.264ZM763 433.096C762.016 433.096 761.264 432.728 760.744 431.992C760.232 431.256 759.976 430.184 759.976 428.776C759.976 427.368 760.232 426.296 760.744 425.56C761.264 424.816 762.016 424.444 763 424.444C763.984 424.444 764.732 424.812 765.244 425.548C765.764 426.284 766.024 427.356 766.024 428.764C766.024 430.18 765.764 431.256 765.244 431.992C764.732 432.728 763.984 433.096 763 433.096ZM763 432.1C763.616 432.1 764.068 431.832 764.356 431.296C764.644 430.76 764.788 429.916 764.788 428.764C764.788 427.62 764.644 426.784 764.356 426.256C764.068 425.72 763.616 425.452 763 425.452C762.384 425.452 761.932 425.72 761.644 426.256C761.356 426.784 761.212 427.62 761.212 428.764C761.212 429.908 761.356 430.752 761.644 431.296C761.932 431.832 762.384 432.1 763 432.1ZM772.956 433H771.42L768.648 430.24V433H767.436V424.54H768.648V429.784L771.216 427.156H772.716L769.944 429.964L772.956 433Z" fill="#2B3034" fill-opacity="0.4"/>
<path d="M845.021 430.264V431.248H843.785V433H842.573V431.248H838.769V430.324L842.777 424.54H843.785V430.264H845.021ZM839.981 430.264H842.573V426.52L839.981 430.264ZM849.408 427.648C849.936 427.648 850.4 427.76 850.8 427.984C851.2 428.208 851.508 428.524 851.724 428.932C851.948 429.34 852.06 429.808 852.06 430.336C852.06 430.88 851.936 431.36 851.688 431.776C851.448 432.192 851.1 432.516 850.644 432.748C850.196 432.972 849.672 433.084 849.072 433.084C848.552 433.084 848.036 432.992 847.524 432.808C847.02 432.624 846.6 432.376 846.264 432.064L846.696 431.152C847.456 431.768 848.252 432.076 849.084 432.076C849.644 432.076 850.08 431.928 850.392 431.632C850.704 431.328 850.86 430.904 850.86 430.36C850.86 429.84 850.704 429.424 850.392 429.112C850.08 428.8 849.664 428.644 849.144 428.644C848.4 428.644 847.788 428.932 847.308 429.508H846.516V424.54H851.7V425.536H847.74V428.2C848.18 427.832 848.736 427.648 849.408 427.648ZM858.956 433H857.42L854.648 430.24V433H853.436V424.54H854.648V429.784L857.216 427.156H858.716L855.944 429.964L858.956 433Z" fill="#2B3034" fill-opacity="0.4"/>
<path d="M928.213 427.648C928.741 427.648 929.205 427.76 929.605 427.984C930.005 428.208 930.313 428.524 930.529 428.932C930.753 429.34 930.865 429.808 930.865 430.336C930.865 430.88 930.741 431.36 930.493 431.776C930.253 432.192 929.905 432.516 929.449 432.748C929.001 432.972 928.477 433.084 927.877 433.084C927.357 433.084 926.841 432.992 926.329 432.808C925.825 432.624 925.405 432.376 925.069 432.064L925.501 431.152C926.261 431.768 927.057 432.076 927.889 432.076C928.449 432.076 928.885 431.928 929.197 431.632C929.509 431.328 929.665 430.904 929.665 430.36C929.665 429.84 929.509 429.424 929.197 429.112C928.885 428.8 928.469 428.644 927.949 428.644C927.205 428.644 926.593 428.932 926.113 429.508H925.321V424.54H930.505V425.536H926.545V428.2C926.985 427.832 927.541 427.648 928.213 427.648ZM935 433.096C934.016 433.096 933.264 432.728 932.744 431.992C932.232 431.256 931.976 430.184 931.976 428.776C931.976 427.368 932.232 426.296 932.744 425.56C933.264 424.816 934.016 424.444 935 424.444C935.984 424.444 936.732 424.812 937.244 425.548C937.764 426.284 938.024 427.356 938.024 428.764C938.024 430.18 937.764 431.256 937.244 431.992C936.732 432.728 935.984 433.096 935 433.096ZM935 432.1C935.616 432.1 936.068 431.832 936.356 431.296C936.644 430.76 936.788 429.916 936.788 428.764C936.788 427.62 936.644 426.784 936.356 426.256C936.068 425.72 935.616 425.452 935 425.452C934.384 425.452 933.932 425.72 933.644 426.256C933.356 426.784 933.212 427.62 933.212 428.764C933.212 429.908 933.356 430.752 933.644 431.296C933.932 431.832 934.384 432.1 935 432.1ZM944.956 433H943.42L940.648 430.24V433H939.436V424.54H940.648V429.784L943.216 427.156H944.716L941.944 429.964L944.956 433Z" fill="#2B3034" fill-opacity="0.4"/>
<path d="M1014.21 427.648C1014.74 427.648 1015.21 427.76 1015.61 427.984C1016.01 428.208 1016.31 428.524 1016.53 428.932C1016.75 429.34 1016.87 429.808 1016.87 430.336C1016.87 430.88 1016.74 431.36 1016.49 431.776C1016.25 432.192 1015.91 432.516 1015.45 432.748C1015 432.972 1014.48 433.084 1013.88 433.084C1013.36 433.084 1012.84 432.992 1012.33 432.808C1011.83 432.624 1011.41 432.376 1011.07 432.064L1011.5 431.152C1012.26 431.768 1013.06 432.076 1013.89 432.076C1014.45 432.076 1014.89 431.928 1015.2 431.632C1015.51 431.328 1015.67 430.904 1015.67 430.36C1015.67 429.84 1015.51 429.424 1015.2 429.112C1014.89 428.8 1014.47 428.644 1013.95 428.644C1013.21 428.644 1012.59 428.932 1012.11 429.508H1011.32V424.54H1016.51V425.536H1012.55V428.2C1012.99 427.832 1013.54 427.648 1014.21 427.648ZM1021.41 427.648C1021.94 427.648 1022.4 427.76 1022.8 427.984C1023.2 428.208 1023.51 428.524 1023.72 428.932C1023.95 429.34 1024.06 429.808 1024.06 430.336C1024.06 430.88 1023.94 431.36 1023.69 431.776C1023.45 432.192 1023.1 432.516 1022.64 432.748C1022.2 432.972 1021.67 433.084 1021.07 433.084C1020.55 433.084 1020.04 432.992 1019.52 432.808C1019.02 432.624 1018.6 432.376 1018.26 432.064L1018.7 431.152C1019.46 431.768 1020.25 432.076 1021.08 432.076C1021.64 432.076 1022.08 431.928 1022.39 431.632C1022.7 431.328 1022.86 430.904 1022.86 430.36C1022.86 429.84 1022.7 429.424 1022.39 429.112C1022.08 428.8 1021.66 428.644 1021.14 428.644C1020.4 428.644 1019.79 428.932 1019.31 429.508H1018.52V424.54H1023.7V425.536H1019.74V428.2C1020.18 427.832 1020.74 427.648 1021.41 427.648ZM1030.96 433H1029.42L1026.65 430.24V433H1025.44V424.54H1026.65V429.784L1029.22 427.156H1030.72L1027.94 429.964L1030.96 433Z" fill="#2B3034" fill-opacity="0.4"/>
<path d="M1100.24 427.636C1100.75 427.636 1101.21 427.752 1101.6 427.984C1102 428.208 1102.31 428.524 1102.52 428.932C1102.75 429.34 1102.86 429.808 1102.86 430.336C1102.86 430.864 1102.74 431.34 1102.5 431.764C1102.27 432.18 1101.94 432.508 1101.51 432.748C1101.09 432.98 1100.61 433.096 1100.09 433.096C1099.04 433.096 1098.23 432.74 1097.66 432.028C1097.1 431.308 1096.82 430.284 1096.82 428.956C1096.82 428.012 1096.95 427.204 1097.22 426.532C1097.48 425.852 1097.87 425.336 1098.37 424.984C1098.87 424.624 1099.47 424.444 1100.17 424.444C1100.67 424.444 1101.15 424.532 1101.62 424.708C1102.09 424.884 1102.51 425.136 1102.86 425.464L1102.41 426.376C1101.66 425.76 1100.93 425.452 1100.21 425.452C1099.52 425.452 1098.99 425.756 1098.61 426.364C1098.23 426.964 1098.05 427.82 1098.05 428.932V428.968C1098.22 428.552 1098.51 428.228 1098.9 427.996C1099.3 427.756 1099.75 427.636 1100.24 427.636ZM1100.03 432.088C1100.52 432.088 1100.92 431.932 1101.21 431.62C1101.51 431.3 1101.66 430.88 1101.66 430.36C1101.66 429.84 1101.51 429.424 1101.2 429.112C1100.91 428.8 1100.51 428.644 1100.01 428.644C1099.52 428.644 1099.11 428.804 1098.79 429.124C1098.47 429.436 1098.31 429.848 1098.31 430.36C1098.31 430.872 1098.47 431.288 1098.78 431.608C1099.1 431.928 1099.51 432.088 1100.03 432.088ZM1106.99 433.096C1106.01 433.096 1105.26 432.728 1104.74 431.992C1104.23 431.256 1103.97 430.184 1103.97 428.776C1103.97 427.368 1104.23 426.296 1104.74 425.56C1105.26 424.816 1106.01 424.444 1106.99 424.444C1107.98 424.444 1108.73 424.812 1109.24 425.548C1109.76 426.284 1110.02 427.356 1110.02 428.764C1110.02 430.18 1109.76 431.256 1109.24 431.992C1108.73 432.728 1107.98 433.096 1106.99 433.096ZM1106.99 432.1C1107.61 432.1 1108.06 431.832 1108.35 431.296C1108.64 430.76 1108.78 429.916 1108.78 428.764C1108.78 427.62 1108.64 426.784 1108.35 426.256C1108.06 425.72 1107.61 425.452 1106.99 425.452C1106.38 425.452 1105.93 425.72 1105.64 426.256C1105.35 426.784 1105.21 427.62 1105.21 428.764C1105.21 429.908 1105.35 430.752 1105.64 431.296C1105.93 431.832 1106.38 432.1 1106.99 432.1ZM1116.95 433H1115.41L1112.64 430.24V433H1111.43V424.54H1112.64V429.784L1115.21 427.156H1116.71L1113.94 429.964L1116.95 433Z" fill="#2B3034" fill-opacity="0.4"/>
<path d="M160.311 427.648C160.839 427.648 161.303 427.76 161.703 427.984C162.103 428.208 162.411 428.524 162.627 428.932C162.851 429.34 162.963 429.808 162.963 430.336C162.963 430.88 162.839 431.36 162.591 431.776C162.351 432.192 162.003 432.516 161.547 432.748C161.099 432.972 160.575 433.084 159.975 433.084C159.455 433.084 158.939 432.992 158.427 432.808C157.923 432.624 157.503 432.376 157.167 432.064L157.599 431.152C158.359 431.768 159.155 432.076 159.987 432.076C160.547 432.076 160.983 431.928 161.295 431.632C161.607 431.328 161.763 430.904 161.763 430.36C161.763 429.84 161.607 429.424 161.295 429.112C160.983 428.8 160.567 428.644 160.047 428.644C159.303 428.644 158.691 428.932 158.211 429.508H157.419V424.54H162.603V425.536H158.643V428.2C159.083 427.832 159.639 427.648 160.311 427.648ZM169.858 433H168.322L165.55 430.24V433H164.338V424.54H165.55V429.784L168.118 427.156H169.618L166.846 429.964L169.858 433Z" fill="#2B3034" fill-opacity="0.4"/>
<path d="M240.265 431.98H242.125V433H237.181V431.98H239.029V426.016L237.553 426.916L237.025 425.992L239.377 424.54H240.265V431.98ZM246.5 433.096C245.516 433.096 244.764 432.728 244.244 431.992C243.732 431.256 243.476 430.184 243.476 428.776C243.476 427.368 243.732 426.296 244.244 425.56C244.764 424.816 245.516 424.444 246.5 424.444C247.484 424.444 248.232 424.812 248.744 425.548C249.264 426.284 249.524 427.356 249.524 428.764C249.524 430.18 249.264 431.256 248.744 431.992C248.232 432.728 247.484 433.096 246.5 433.096ZM246.5 432.1C247.116 432.1 247.568 431.832 247.856 431.296C248.144 430.76 248.288 429.916 248.288 428.764C248.288 427.62 248.144 426.784 247.856 426.256C247.568 425.72 247.116 425.452 246.5 425.452C245.884 425.452 245.432 425.72 245.144 426.256C244.856 426.784 244.712 427.62 244.712 428.764C244.712 429.908 244.856 430.752 245.144 431.296C245.432 431.832 245.884 432.1 246.5 432.1ZM256.456 433H254.92L252.148 430.24V433H250.936V424.54H252.148V429.784L254.716 427.156H256.216L253.444 429.964L256.456 433Z" fill="#2B3034" fill-opacity="0.4"/>
<path d="M326.265 431.98H328.125V433H323.181V431.98H325.029V426.016L323.553 426.916L323.025 425.992L325.377 424.54H326.265V431.98ZM332.908 427.648C333.436 427.648 333.9 427.76 334.3 427.984C334.7 428.208 335.008 428.524 335.224 428.932C335.448 429.34 335.56 429.808 335.56 430.336C335.56 430.88 335.436 431.36 335.188 431.776C334.948 432.192 334.6 432.516 334.144 432.748C333.696 432.972 333.172 433.084 332.572 433.084C332.052 433.084 331.536 432.992 331.024 432.808C330.52 432.624 330.1 432.376 329.764 432.064L330.196 431.152C330.956 431.768 331.752 432.076 332.584 432.076C333.144 432.076 333.58 431.928 333.892 431.632C334.204 431.328 334.36 430.904 334.36 430.36C334.36 429.84 334.204 429.424 333.892 429.112C333.58 428.8 333.164 428.644 332.644 428.644C331.9 428.644 331.288 428.932 330.808 429.508H330.016V424.54H335.2V425.536H331.24V428.2C331.68 427.832 332.236 427.648 332.908 427.648ZM342.456 433H340.92L338.148 430.24V433H336.936V424.54H338.148V429.784L340.716 427.156H342.216L339.444 429.964L342.456 433Z" fill="#2B3034" fill-opacity="0.4"/>
<path d="M414.209 431.98V433H408.665V432.076L411.581 428.884C411.957 428.476 412.229 428.104 412.397 427.768C412.565 427.432 412.649 427.1 412.649 426.772C412.649 426.34 412.525 426.012 412.277 425.788C412.029 425.564 411.673 425.452 411.209 425.452C410.417 425.452 409.633 425.76 408.857 426.376L408.425 425.464C408.761 425.152 409.185 424.904 409.697 424.72C410.209 424.536 410.725 424.444 411.245 424.444C412.053 424.444 412.693 424.648 413.165 425.056C413.637 425.456 413.873 426 413.873 426.688C413.873 427.176 413.765 427.64 413.549 428.08C413.341 428.52 412.989 429.012 412.493 429.556L410.225 431.98H414.209ZM418.5 433.096C417.516 433.096 416.764 432.728 416.244 431.992C415.732 431.256 415.476 430.184 415.476 428.776C415.476 427.368 415.732 426.296 416.244 425.56C416.764 424.816 417.516 424.444 418.5 424.444C419.484 424.444 420.232 424.812 420.744 425.548C421.264 426.284 421.524 427.356 421.524 428.764C421.524 430.18 421.264 431.256 420.744 431.992C420.232 432.728 419.484 433.096 418.5 433.096ZM418.5 432.1C419.116 432.1 419.568 431.832 419.856 431.296C420.144 430.76 420.288 429.916 420.288 428.764C420.288 427.62 420.144 426.784 419.856 426.256C419.568 425.72 419.116 425.452 418.5 425.452C417.884 425.452 417.432 425.72 417.144 426.256C416.856 426.784 416.712 427.62 416.712 428.764C416.712 429.908 416.856 430.752 417.144 431.296C417.432 431.832 417.884 432.1 418.5 432.1ZM428.456 433H426.92L424.148 430.24V433H422.936V424.54H424.148V429.784L426.716 427.156H428.216L425.444 429.964L428.456 433Z" fill="#2B3034" fill-opacity="0.4"/>
<path d="M500.209 431.98V433H494.665V432.076L497.581 428.884C497.957 428.476 498.229 428.104 498.397 427.768C498.565 427.432 498.649 427.1 498.649 426.772C498.649 426.34 498.525 426.012 498.277 425.788C498.029 425.564 497.673 425.452 497.209 425.452C496.417 425.452 495.633 425.76 494.857 426.376L494.425 425.464C494.761 425.152 495.185 424.904 495.697 424.72C496.209 424.536 496.725 424.444 497.245 424.444C498.053 424.444 498.693 424.648 499.165 425.056C499.637 425.456 499.873 426 499.873 426.688C499.873 427.176 499.765 427.64 499.549 428.08C499.341 428.52 498.989 429.012 498.493 429.556L496.225 431.98H500.209ZM504.908 427.648C505.436 427.648 505.9 427.76 506.3 427.984C506.7 428.208 507.008 428.524 507.224 428.932C507.448 429.34 507.56 429.808 507.56 430.336C507.56 430.88 507.436 431.36 507.188 431.776C506.948 432.192 506.6 432.516 506.144 432.748C505.696 432.972 505.172 433.084 504.572 433.084C504.052 433.084 503.536 432.992 503.024 432.808C502.52 432.624 502.1 432.376 501.764 432.064L502.196 431.152C502.956 431.768 503.752 432.076 504.584 432.076C505.144 432.076 505.58 431.928 505.892 431.632C506.204 431.328 506.36 430.904 506.36 430.36C506.36 429.84 506.204 429.424 505.892 429.112C505.58 428.8 505.164 428.644 504.644 428.644C503.9 428.644 503.288 428.932 502.808 429.508H502.016V424.54H507.2V425.536H503.24V428.2C503.68 427.832 504.236 427.648 504.908 427.648ZM514.456 433H512.92L510.148 430.24V433H508.936V424.54H510.148V429.784L512.716 427.156H514.216L511.444 429.964L514.456 433Z" fill="#2B3034" fill-opacity="0.4"/>
<path d="M671.053 428.656C671.549 428.8 671.925 429.048 672.181 429.4C672.445 429.744 672.577 430.18 672.577 430.708C672.577 431.444 672.317 432.024 671.797 432.448C671.277 432.872 670.573 433.084 669.685 433.084C669.125 433.084 668.589 432.996 668.077 432.82C667.565 432.636 667.137 432.384 666.793 432.064L667.237 431.152C667.997 431.768 668.801 432.076 669.649 432.076C670.217 432.076 670.645 431.956 670.933 431.716C671.229 431.468 671.377 431.104 671.377 430.624C671.377 430.152 671.225 429.8 670.921 429.568C670.625 429.328 670.173 429.208 669.565 429.208H668.521V428.212H669.373C669.957 428.212 670.401 428.092 670.705 427.852C671.017 427.604 671.173 427.244 671.173 426.772C671.173 426.348 671.045 426.024 670.789 425.8C670.533 425.568 670.173 425.452 669.709 425.452C668.901 425.452 668.117 425.76 667.357 426.376L666.925 425.464C667.261 425.144 667.681 424.896 668.185 424.72C668.697 424.536 669.225 424.444 669.769 424.444C670.561 424.444 671.193 424.64 671.665 425.032C672.137 425.424 672.373 425.956 672.373 426.628C672.373 427.1 672.257 427.516 672.025 427.876C671.793 428.236 671.469 428.496 671.053 428.656ZM677.408 427.648C677.936 427.648 678.4 427.76 678.8 427.984C679.2 428.208 679.508 428.524 679.724 428.932C679.948 429.34 680.06 429.808 680.06 430.336C680.06 430.88 679.936 431.36 679.688 431.776C679.448 432.192 679.1 432.516 678.644 432.748C678.196 432.972 677.672 433.084 677.072 433.084C676.552 433.084 676.036 432.992 675.524 432.808C675.02 432.624 674.6 432.376 674.264 432.064L674.696 431.152C675.456 431.768 676.252 432.076 677.084 432.076C677.644 432.076 678.08 431.928 678.392 431.632C678.704 431.328 678.86 430.904 678.86 430.36C678.86 429.84 678.704 429.424 678.392 429.112C678.08 428.8 677.664 428.644 677.144 428.644C676.4 428.644 675.788 428.932 675.308 429.508H674.516V424.54H679.7V425.536H675.74V428.2C676.18 427.832 676.736 427.648 677.408 427.648ZM686.956 433H685.42L682.648 430.24V433H681.436V424.54H682.648V429.784L685.216 427.156H686.716L683.944 429.964L686.956 433Z" fill="#2B3034" fill-opacity="0.4"/>
<path d="M584.553 428.656C585.049 428.8 585.425 429.048 585.681 429.4C585.945 429.744 586.077 430.18 586.077 430.708C586.077 431.444 585.817 432.024 585.297 432.448C584.777 432.872 584.073 433.084 583.185 433.084C582.625 433.084 582.089 432.996 581.577 432.82C581.065 432.636 580.637 432.384 580.293 432.064L580.737 431.152C581.497 431.768 582.301 432.076 583.149 432.076C583.717 432.076 584.145 431.956 584.433 431.716C584.729 431.468 584.877 431.104 584.877 430.624C584.877 430.152 584.725 429.8 584.421 429.568C584.125 429.328 583.673 429.208 583.065 429.208H582.021V428.212H582.873C583.457 428.212 583.901 428.092 584.205 427.852C584.517 427.604 584.673 427.244 584.673 426.772C584.673 426.348 584.545 426.024 584.289 425.8C584.033 425.568 583.673 425.452 583.209 425.452C582.401 425.452 581.617 425.76 580.857 426.376L580.425 425.464C580.761 425.144 581.181 424.896 581.685 424.72C582.197 424.536 582.725 424.444 583.269 424.444C584.061 424.444 584.693 424.64 585.165 425.032C585.637 425.424 585.873 425.956 585.873 426.628C585.873 427.1 585.757 427.516 585.525 427.876C585.293 428.236 584.969 428.496 584.553 428.656ZM590.5 433.096C589.516 433.096 588.764 432.728 588.244 431.992C587.732 431.256 587.476 430.184 587.476 428.776C587.476 427.368 587.732 426.296 588.244 425.56C588.764 424.816 589.516 424.444 590.5 424.444C591.484 424.444 592.232 424.812 592.744 425.548C593.264 426.284 593.524 427.356 593.524 428.764C593.524 430.18 593.264 431.256 592.744 431.992C592.232 432.728 591.484 433.096 590.5 433.096ZM590.5 432.1C591.116 432.1 591.568 431.832 591.856 431.296C592.144 430.76 592.288 429.916 592.288 428.764C592.288 427.62 592.144 426.784 591.856 426.256C591.568 425.72 591.116 425.452 590.5 425.452C589.884 425.452 589.432 425.72 589.144 426.256C588.856 426.784 588.712 427.62 588.712 428.764C588.712 429.908 588.856 430.752 589.144 431.296C589.432 431.832 589.884 432.1 590.5 432.1ZM600.456 433H598.92L596.148 430.24V433H594.936V424.54H596.148V429.784L598.716 427.156H600.216L597.444 429.964L600.456 433Z" fill="#2B3034" fill-opacity="0.4"/>
<path d="M86.504 398.98V400H80.96V399.076L83.876 395.884C84.252 395.476 84.524 395.104 84.692 394.768C84.86 394.432 84.944 394.1 84.944 393.772C84.944 393.34 84.82 393.012 84.572 392.788C84.324 392.564 83.968 392.452 83.504 392.452C82.712 392.452 81.928 392.76 81.152 393.376L80.72 392.464C81.056 392.152 81.48 391.904 81.992 391.72C82.504 391.536 83.02 391.444 83.54 391.444C84.348 391.444 84.988 391.648 85.46 392.056C85.932 392.456 86.168 393 86.168 393.688C86.168 394.176 86.06 394.64 85.844 395.08C85.636 395.52 85.284 396.012 84.788 396.556L82.52 398.98H86.504ZM90.7953 400.096C89.8113 400.096 89.0593 399.728 88.5393 398.992C88.0273 398.256 87.7713 397.184 87.7713 395.776C87.7713 394.368 88.0273 393.296 88.5393 392.56C89.0593 391.816 89.8113 391.444 90.7953 391.444C91.7793 391.444 92.5273 391.812 93.0393 392.548C93.5593 393.284 93.8193 394.356 93.8193 395.764C93.8193 397.18 93.5593 398.256 93.0393 398.992C92.5273 399.728 91.7793 400.096 90.7953 400.096ZM90.7953 399.1C91.4113 399.1 91.8633 398.832 92.1513 398.296C92.4393 397.76 92.5833 396.916 92.5833 395.764C92.5833 394.62 92.4393 393.784 92.1513 393.256C91.8633 392.72 91.4113 392.452 90.7953 392.452C90.1793 392.452 89.7273 392.72 89.4393 393.256C89.1513 393.784 89.0073 394.62 89.0073 395.764C89.0073 396.908 89.1513 397.752 89.4393 398.296C89.7273 398.832 90.1793 399.1 90.7953 399.1Z" fill="#2B3034" fill-opacity="0.4"/>
<g opacity="0.951521">
<path fill-rule="evenodd" clip-rule="evenodd" d="M156 396.5H1153.16H156Z" fill="white"/>
<path d="M156 396.5H1153.16" stroke="#EAEAEA" stroke-linecap="square"/>
<path fill-rule="evenodd" clip-rule="evenodd" d="M156 337.5H1153.16H156Z" fill="white"/>
<path d="M156 337.5H1153.16" stroke="#EAEAEA" stroke-linecap="square"/>
<path fill-rule="evenodd" clip-rule="evenodd" d="M156 278.5H1153.16H156Z" fill="white"/>
<path d="M156 278.5H1153.16" stroke="#EAEAEA" stroke-linecap="square"/>
<path fill-rule="evenodd" clip-rule="evenodd" d="M156 219.5H1153.16H156Z" fill="white"/>
<path d="M156 219.5H1153.16" stroke="#EAEAEA" stroke-linecap="square"/>
<path fill-rule="evenodd" clip-rule="evenodd" d="M156 160.5H1153.16H156Z" fill="white"/>
<path d="M156 160.5H1153.16" stroke="#EAEAEA" stroke-linecap="square"/>
</g>
<path d="M86.816 338.264V339.248H85.58V341H84.368V339.248H80.564V338.324L84.572 332.54H85.58V338.264H86.816ZM81.776 338.264H84.368V334.52L81.776 338.264ZM90.7953 341.096C89.8113 341.096 89.0593 340.728 88.5393 339.992C88.0273 339.256 87.7713 338.184 87.7713 336.776C87.7713 335.368 88.0273 334.296 88.5393 333.56C89.0593 332.816 89.8113 332.444 90.7953 332.444C91.7793 332.444 92.5273 332.812 93.0393 333.548C93.5593 334.284 93.8193 335.356 93.8193 336.764C93.8193 338.18 93.5593 339.256 93.0393 339.992C92.5273 340.728 91.7793 341.096 90.7953 341.096ZM90.7953 340.1C91.4113 340.1 91.8633 339.832 92.1513 339.296C92.4393 338.76 92.5833 337.916 92.5833 336.764C92.5833 335.62 92.4393 334.784 92.1513 334.256C91.8633 333.72 91.4113 333.452 90.7953 333.452C90.1793 333.452 89.7273 333.72 89.4393 334.256C89.1513 334.784 89.0073 335.62 89.0073 336.764C89.0073 337.908 89.1513 338.752 89.4393 339.296C89.7273 339.832 90.1793 340.1 90.7953 340.1Z" fill="#2B3034" fill-opacity="0.4"/>
<path d="M84.032 276.636C84.544 276.636 84.996 276.752 85.388 276.984C85.788 277.208 86.096 277.524 86.312 277.932C86.536 278.34 86.648 278.808 86.648 279.336C86.648 279.864 86.528 280.34 86.288 280.764C86.056 281.18 85.728 281.508 85.304 281.748C84.88 281.98 84.404 282.096 83.876 282.096C82.828 282.096 82.02 281.74 81.452 281.028C80.892 280.308 80.612 279.284 80.612 277.956C80.612 277.012 80.744 276.204 81.008 275.532C81.272 274.852 81.656 274.336 82.16 273.984C82.664 273.624 83.264 273.444 83.96 273.444C84.456 273.444 84.94 273.532 85.412 273.708C85.884 273.884 86.296 274.136 86.648 274.464L86.204 275.376C85.452 274.76 84.716 274.452 83.996 274.452C83.308 274.452 82.776 274.756 82.4 275.364C82.024 275.964 81.836 276.82 81.836 277.932V277.968C82.012 277.552 82.296 277.228 82.688 276.996C83.088 276.756 83.536 276.636 84.032 276.636ZM83.816 281.088C84.312 281.088 84.708 280.932 85.004 280.62C85.3 280.3 85.448 279.88 85.448 279.36C85.448 278.84 85.296 278.424 84.992 278.112C84.696 277.8 84.3 277.644 83.804 277.644C83.308 277.644 82.9 277.804 82.58 278.124C82.26 278.436 82.1 278.848 82.1 279.36C82.1 279.872 82.256 280.288 82.568 280.608C82.888 280.928 83.304 281.088 83.816 281.088ZM90.7836 282.096C89.7996 282.096 89.0476 281.728 88.5276 280.992C88.0156 280.256 87.7596 279.184 87.7596 277.776C87.7596 276.368 88.0156 275.296 88.5276 274.56C89.0476 273.816 89.7996 273.444 90.7836 273.444C91.7676 273.444 92.5156 273.812 93.0276 274.548C93.5476 275.284 93.8076 276.356 93.8076 277.764C93.8076 279.18 93.5476 280.256 93.0276 280.992C92.5156 281.728 91.7676 282.096 90.7836 282.096ZM90.7836 281.1C91.3996 281.1 91.8516 280.832 92.1396 280.296C92.4276 279.76 92.5716 278.916 92.5716 277.764C92.5716 276.62 92.4276 275.784 92.1396 275.256C91.8516 274.72 91.3996 274.452 90.7836 274.452C90.1676 274.452 89.7156 274.72 89.4276 275.256C89.1396 275.784 88.9956 276.62 88.9956 277.764C88.9956 278.908 89.1396 279.752 89.4276 280.296C89.7156 280.832 90.1676 281.1 90.7836 281.1Z" fill="#2B3034" fill-opacity="0.4"/>
<path d="M85.136 218.656C85.632 218.8 86.016 219.056 86.288 219.424C86.56 219.792 86.696 220.232 86.696 220.744C86.696 221.48 86.424 222.056 85.88 222.472C85.344 222.88 84.584 223.084 83.6 223.084C82.616 223.084 81.852 222.88 81.308 222.472C80.772 222.056 80.504 221.48 80.504 220.744C80.504 220.224 80.64 219.78 80.912 219.412C81.192 219.044 81.58 218.792 82.076 218.656C81.652 218.496 81.316 218.244 81.068 217.9C80.828 217.556 80.708 217.156 80.708 216.7C80.708 216.004 80.964 215.456 81.476 215.056C81.988 214.648 82.696 214.444 83.6 214.444C84.504 214.444 85.212 214.648 85.724 215.056C86.236 215.456 86.492 216.004 86.492 216.7C86.492 217.156 86.368 217.56 86.12 217.912C85.88 218.256 85.552 218.504 85.136 218.656ZM83.6 215.44C83.04 215.44 82.616 215.56 82.328 215.8C82.04 216.032 81.896 216.368 81.896 216.808C81.896 217.264 82.04 217.612 82.328 217.852C82.616 218.092 83.04 218.212 83.6 218.212C84.16 218.212 84.584 218.092 84.872 217.852C85.16 217.612 85.304 217.264 85.304 216.808C85.304 216.368 85.16 216.032 84.872 215.8C84.584 215.56 84.16 215.44 83.6 215.44ZM83.6 222.088C84.872 222.088 85.508 221.612 85.508 220.66C85.508 219.7 84.872 219.22 83.6 219.22C82.328 219.22 81.692 219.7 81.692 220.66C81.692 221.612 82.328 222.088 83.6 222.088ZM90.7953 223.096C89.8113 223.096 89.0593 222.728 88.5393 221.992C88.0273 221.256 87.7713 220.184 87.7713 218.776C87.7713 217.368 88.0273 216.296 88.5393 215.56C89.0593 214.816 89.8113 214.444 90.7953 214.444C91.7793 214.444 92.5273 214.812 93.0393 215.548C93.5593 216.284 93.8193 217.356 93.8193 218.764C93.8193 220.18 93.5593 221.256 93.0393 221.992C92.5273 222.728 91.7793 223.096 90.7953 223.096ZM90.7953 222.1C91.4113 222.1 91.8633 221.832 92.1513 221.296C92.4393 220.76 92.5833 219.916 92.5833 218.764C92.5833 217.62 92.4393 216.784 92.1513 216.256C91.8633 215.72 91.4113 215.452 90.7953 215.452C90.1793 215.452 89.7273 215.72 89.4393 216.256C89.1513 216.784 89.0073 217.62 89.0073 218.764C89.0073 219.908 89.1513 220.752 89.4393 221.296C89.7273 221.832 90.1793 222.1 90.7953 222.1Z" fill="#2B3034" fill-opacity="0.4"/>
<path d="M84.56 162.98H86.42V164H81.476V162.98H83.324V157.016L81.848 157.916L81.32 156.992L83.672 155.54H84.56V162.98ZM90.7953 164.096C89.8113 164.096 89.0593 163.728 88.5393 162.992C88.0273 162.256 87.7713 161.184 87.7713 159.776C87.7713 158.368 88.0273 157.296 88.5393 156.56C89.0593 155.816 89.8113 155.444 90.7953 155.444C91.7793 155.444 92.5273 155.812 93.0393 156.548C93.5593 157.284 93.8193 158.356 93.8193 159.764C93.8193 161.18 93.5593 162.256 93.0393 162.992C92.5273 163.728 91.7793 164.096 90.7953 164.096ZM90.7953 163.1C91.4113 163.1 91.8633 162.832 92.1513 162.296C92.4393 161.76 92.5833 160.916 92.5833 159.764C92.5833 158.62 92.4393 157.784 92.1513 157.256C91.8633 156.72 91.4113 156.452 90.7953 156.452C90.1793 156.452 89.7273 156.72 89.4393 157.256C89.1513 157.784 89.0073 158.62 89.0073 159.764C89.0073 160.908 89.1513 161.752 89.4393 162.296C89.7273 162.832 90.1793 163.1 90.7953 163.1ZM97.9906 164.096C97.0066 164.096 96.2546 163.728 95.7346 162.992C95.2226 162.256 94.9666 161.184 94.9666 159.776C94.9666 158.368 95.2226 157.296 95.7346 156.56C96.2546 155.816 97.0066 155.444 97.9906 155.444C98.9746 155.444 99.7226 155.812 100.235 156.548C100.755 157.284 101.015 158.356 101.015 159.764C101.015 161.18 100.755 162.256 100.235 162.992C99.7226 163.728 98.9746 164.096 97.9906 164.096ZM97.9906 163.1C98.6066 163.1 99.0586 162.832 99.3466 162.296C99.6346 161.76 99.7786 160.916 99.7786 159.764C99.7786 158.62 99.6346 157.784 99.3466 157.256C99.0586 156.72 98.6066 156.452 97.9906 156.452C97.3746 156.452 96.9226 156.72 96.6346 157.256C96.3466 157.784 96.2026 158.62 96.2026 159.764C96.2026 160.908 96.3466 161.752 96.6346 162.296C96.9226 162.832 97.3746 163.1 97.9906 163.1Z" fill="#2B3034" fill-opacity="0.4"/>
<path opacity="0.78" fill-rule="evenodd" clip-rule="evenodd" d="M160 395.867C160 395.867 220.526 246.277 244.834 246.277C269.142 246.277 323.891 357.709 384.485 357.709C445.078 357.709 464.218 318.985 542.321 303.499C620.424 288.012 625.085 376.477 663.739 376.477C702.392 376.477 760.195 283.773 788.32 283.773C814.944 283.773 824.861 376.477 906.761 376.477C988.661 376.477 1039.75 186.867 1076.87 186.867C1113.99 186.867 1154 395.867 1154 395.867H160Z" fill="#DBA5FF"/>
<path fill-rule="evenodd" clip-rule="evenodd" d="M160 396C160 396 214.625 356.402 260.585 356.402C306.544 356.402 309.613 374.569 393.062 374.569C476.51 374.569 506.503 291.5 521.71 291.5C536.917 291.5 538.091 356.402 578.484 356.402C623.765 356.402 655.53 187 688.808 187C731.011 187 753.303 339.453 791.259 339.453C829.215 339.453 852.46 258.576 891.199 258.576C925.601 258.576 949.935 342.372 974.605 351.811C1000.63 361.769 1012.62 282.542 1061.56 282.542C1110.5 282.542 1158 396 1158 396H160Z" fill="#FF8F6D" fill-opacity="0.8"/>
<rect x="1050.3" y="80.3" width="103.4" height="27.4" rx="3.7" fill="#FCFDFD" stroke="#D5D5D5" stroke-width="0.6"/>
<path d="M1136.86 91.2681L1133 95.2936L1129.14 91.2681C1128.84 90.9181 1128.53 90.9108 1128.23 91.2462C1127.92 91.5817 1127.92 91.9099 1128.23 92.2307L1132.54 96.7812C1132.65 96.9271 1132.81 97 1133 97C1133.19 97 1133.35 96.9271 1133.46 96.7812L1137.77 92.2307C1138.08 91.9099 1138.08 91.5817 1137.77 91.2462C1137.47 90.9108 1137.16 90.9181 1136.86 91.2681Z" fill="#2B3034" fill-opacity="0.4"/>
<path d="M1069.14 93.74C1069.14 91.688 1070.55 90.668 1071.98 90.668C1073.42 90.668 1074.84 91.688 1074.84 93.74C1074.84 95.792 1073.42 96.812 1071.98 96.812C1070.55 96.812 1069.14 95.792 1069.14 93.74ZM1067.66 93.74C1067.66 96.536 1069.75 98.18 1071.98 98.18C1074.21 98.18 1076.31 96.536 1076.31 93.74C1076.31 90.956 1074.21 89.312 1071.98 89.312C1069.75 89.312 1067.66 90.956 1067.66 93.74ZM1080.28 93.26C1081.17 93.26 1081.56 93.836 1081.7 94.352L1082.94 93.896C1082.7 92.96 1081.84 91.976 1080.27 91.976C1078.59 91.976 1077.28 93.272 1077.28 95.072C1077.28 96.848 1078.59 98.18 1080.3 98.18C1081.84 98.18 1082.72 97.184 1082.99 96.272L1081.77 95.828C1081.64 96.272 1081.22 96.908 1080.3 96.908C1079.43 96.908 1078.67 96.248 1078.67 95.072C1078.67 93.896 1079.43 93.26 1080.28 93.26ZM1085.99 90.368H1084.73V91.244C1084.73 91.76 1084.46 92.156 1083.83 92.156H1083.53V93.392H1084.61V96.332C1084.61 97.424 1085.28 98.072 1086.36 98.072C1086.87 98.072 1087.13 97.976 1087.22 97.94V96.788C1087.16 96.8 1086.93 96.836 1086.74 96.836C1086.22 96.836 1085.99 96.62 1085.99 96.104V93.392H1087.2V92.156H1085.99V90.368ZM1091.14 96.932C1090.29 96.932 1089.51 96.284 1089.51 95.072C1089.51 93.86 1090.29 93.236 1091.14 93.236C1092.01 93.236 1092.78 93.86 1092.78 95.072C1092.78 96.296 1092.01 96.932 1091.14 96.932ZM1091.14 91.976C1089.4 91.976 1088.12 93.284 1088.12 95.072C1088.12 96.872 1089.4 98.18 1091.14 98.18C1092.9 98.18 1094.18 96.872 1094.18 95.072C1094.18 93.284 1092.9 91.976 1091.14 91.976ZM1096.88 98V97.22C1097.22 97.784 1097.85 98.144 1098.68 98.144C1100.39 98.144 1101.43 96.812 1101.43 95.048C1101.43 93.332 1100.48 92 1098.73 92C1097.83 92 1097.16 92.42 1096.89 92.876V89.312H1095.53V98H1096.88ZM1100.03 95.06C1100.03 96.212 1099.37 96.908 1098.45 96.908C1097.57 96.908 1096.88 96.212 1096.88 95.06C1096.88 93.896 1097.57 93.236 1098.45 93.236C1099.38 93.236 1100.03 93.896 1100.03 95.06ZM1103.74 94.436C1103.79 93.812 1104.29 93.14 1105.17 93.14C1106.13 93.14 1106.58 93.752 1106.61 94.436H1103.74ZM1106.76 95.96C1106.57 96.536 1106.14 96.98 1105.3 96.98C1104.44 96.98 1103.74 96.344 1103.7 95.456H1107.98C1107.99 95.432 1108.01 95.24 1108.01 95.012C1108.01 93.164 1106.96 91.976 1105.16 91.976C1103.68 91.976 1102.31 93.2 1102.31 95.048C1102.31 97.028 1103.72 98.18 1105.3 98.18C1106.7 98.18 1107.63 97.352 1107.94 96.332L1106.76 95.96ZM1112.76 92.12C1112.7 92.108 1112.56 92.084 1112.39 92.084C1111.62 92.084 1110.97 92.456 1110.7 93.092V92.156H1109.34V98H1110.73V95.216C1110.73 94.124 1111.23 93.5 1112.31 93.5C1112.45 93.5 1112.61 93.512 1112.76 93.536V92.12Z" fill="#2B3034" fill-opacity="0.4"/>
<path d="M96.008 103H92.648L89.744 97.6C89.472 97.088 89.136 96.728 88.736 96.52C88.336 96.312 87.832 96.208 87.224 96.208H84.872V103H81.824V86.08H89.312C91.232 86.08 92.688 86.512 93.68 87.376C94.688 88.224 95.192 89.456 95.192 91.072C95.192 92.368 94.824 93.44 94.088 94.288C93.368 95.12 92.344 95.664 91.016 95.92C91.912 96.16 92.632 96.792 93.176 97.816L96.008 103ZM88.88 93.832C90.048 93.832 90.904 93.616 91.448 93.184C91.992 92.736 92.264 92.056 92.264 91.144C92.264 90.216 91.992 89.544 91.448 89.128C90.904 88.696 90.048 88.48 88.88 88.48H84.848V93.832H88.88ZM108.544 97.672H100.552C100.648 98.76 100.976 99.568 101.536 100.096C102.096 100.624 102.896 100.888 103.936 100.888C105.232 100.888 106.416 100.472 107.488 99.64L108.352 101.704C107.808 102.152 107.12 102.512 106.288 102.784C105.472 103.056 104.648 103.192 103.816 103.192C101.896 103.192 100.376 102.648 99.2555 101.56C98.1515 100.472 97.5995 98.984 97.5995 97.096C97.5995 95.896 97.8395 94.832 98.3195 93.904C98.7995 92.976 99.4715 92.256 100.336 91.744C101.216 91.232 102.208 90.976 103.312 90.976C104.928 90.976 106.2 91.496 107.128 92.536C108.072 93.576 108.544 95.008 108.544 96.832V97.672ZM103.384 93.088C102.584 93.088 101.936 93.344 101.44 93.856C100.96 94.368 100.664 95.104 100.552 96.064H105.976C105.944 95.088 105.704 94.352 105.256 93.856C104.808 93.344 104.184 93.088 103.384 93.088ZM119.042 91.288H121.994L116.858 103H114.242L109.154 91.288H112.322L115.634 99.568L119.042 91.288ZM133.551 97.672H125.559C125.655 98.76 125.983 99.568 126.543 100.096C127.103 100.624 127.903 100.888 128.943 100.888C130.239 100.888 131.423 100.472 132.495 99.64L133.359 101.704C132.815 102.152 132.127 102.512 131.295 102.784C130.479 103.056 129.655 103.192 128.823 103.192C126.903 103.192 125.383 102.648 124.263 101.56C123.159 100.472 122.607 98.984 122.607 97.096C122.607 95.896 122.847 94.832 123.327 93.904C123.807 92.976 124.479 92.256 125.343 91.744C126.223 91.232 127.215 90.976 128.319 90.976C129.935 90.976 131.207 91.496 132.135 92.536C133.079 93.576 133.551 95.008 133.551 96.832V97.672ZM128.391 93.088C127.591 93.088 126.943 93.344 126.447 93.856C125.967 94.368 125.671 95.104 125.559 96.064H130.983C130.951 95.088 130.711 94.352 130.263 93.856C129.815 93.344 129.191 93.088 128.391 93.088ZM142.821 90.976C144.229 90.976 145.277 91.376 145.965 92.176C146.653 92.976 146.997 94.184 146.997 95.8V103H143.997V95.968C143.997 95.056 143.821 94.392 143.469 93.976C143.133 93.56 142.597 93.352 141.861 93.352C140.997 93.352 140.301 93.624 139.773 94.168C139.261 94.712 139.005 95.44 139.005 96.352V103H136.005V91.264H138.933V93.016C139.333 92.36 139.869 91.856 140.541 91.504C141.213 91.152 141.973 90.976 142.821 90.976ZM160.82 91.264V103H157.892V101.2C157.524 101.84 157.028 102.336 156.404 102.688C155.78 103.024 155.076 103.192 154.292 103.192C151.412 103.192 149.972 101.576 149.972 98.344V91.264H152.972V98.368C152.972 99.2 153.14 99.816 153.476 100.216C153.812 100.616 154.34 100.816 155.06 100.816C155.892 100.816 156.556 100.544 157.052 100C157.564 99.44 157.82 98.704 157.82 97.792V91.264H160.82ZM174.239 97.672H166.247C166.343 98.76 166.671 99.568 167.231 100.096C167.791 100.624 168.591 100.888 169.631 100.888C170.927 100.888 172.111 100.472 173.183 99.64L174.047 101.704C173.503 102.152 172.815 102.512 171.983 102.784C171.167 103.056 170.343 103.192 169.511 103.192C167.591 103.192 166.071 102.648 164.951 101.56C163.847 100.472 163.295 98.984 163.295 97.096C163.295 95.896 163.535 94.832 164.015 93.904C164.495 92.976 165.167 92.256 166.031 91.744C166.911 91.232 167.903 90.976 169.007 90.976C170.623 90.976 171.895 91.496 172.823 92.536C173.767 93.576 174.239 95.008 174.239 96.832V97.672ZM169.079 93.088C168.279 93.088 167.631 93.344 167.135 93.856C166.655 94.368 166.359 95.104 166.247 96.064H171.671C171.639 95.088 171.399 94.352 170.951 93.856C170.503 93.344 169.879 93.088 169.079 93.088Z" fill="#202224"/>
<defs>
<filter id="filter0_d_0_11120" x="0" y="0" width="1246" height="586" filterUnits="userSpaceOnUse" color-interpolation-filters="sRGB">
<feFlood flood-opacity="0" result="BackgroundImageFix"/>
<feColorMatrix in="SourceAlpha" type="matrix" values="0 0 0 0 0 0 0 0 0 0 0 0 0 0 0 0 0 0 127 0" result="hardAlpha"/>
<feOffset dx="6" dy="6"/>
<feGaussianBlur stdDeviation="27"/>
<feColorMatrix type="matrix" values="0 0 0 0 0 0 0 0 0 0 0 0 0 0 0 0 0 0 0.05 0"/>
<feBlend mode="normal" in2="BackgroundImageFix" result="effect1_dropShadow_0_11120"/>
<feBlend mode="normal" in="SourceGraphic" in2="effect1_dropShadow_0_11120" result="shape"/>
</filter>
</defs>
</svg>
