<svg width="438" height="443" viewBox="0 0 438 443" fill="none" xmlns="http://www.w3.org/2000/svg">
<g filter="url(#filter0_d_0_11045)">
<rect x="48" y="48" width="360" height="365" rx="14" fill="white"/>
</g>
<path d="M95 362.067C95 362.067 108.757 319.358 115.455 302.371C122.545 284.385 129.5 269.663 136.319 258.204C143.323 246.434 150.183 238.107 156.901 233.221C162.397 229.225 176.216 228.637 177.707 229.069C185.48 231.318 192.095 236.797 198.376 243.832C205.377 251.673 211.963 261.449 219.276 270.845C225.389 278.699 232.01 286.289 239.806 292.26C245.86 296.898 252.624 300.56 260.408 302.612C264.867 303.788 279.067 304.264 281.174 303.93C288.109 302.833 295.016 299.986 301.781 295.771C309.007 291.269 316.071 285.206 322.838 278.045C330.121 270.336 337.059 261.356 343.482 251.681C351.251 239.978 358.265 227.26 364.223 214.548C376.971 187.349 384.883 160.181 385 143.067" stroke="#00B69B" stroke-width="4" stroke-linecap="round"/>
<path fill-rule="evenodd" clip-rule="evenodd" d="M94 368C96.2091 368 98 366.209 98 364C98 361.791 96.2091 360 94 360C91.7909 360 90 361.791 90 364C90 366.209 91.7909 368 94 368Z" fill="#00B69B" stroke="white" stroke-width="1.4"/>
<path fill-rule="evenodd" clip-rule="evenodd" d="M114 309C116.209 309 118 307.209 118 305C118 302.791 116.209 301 114 301C111.791 301 110 302.791 110 305C110 307.209 111.791 309 114 309Z" fill="#00B69B" stroke="white" stroke-width="1.4"/>
<path fill-rule="evenodd" clip-rule="evenodd" d="M133 267C135.209 267 137 265.209 137 263C137 260.791 135.209 259 133 259C130.791 259 129 260.791 129 263C129 265.209 130.791 267 133 267Z" fill="#00B69B" stroke="white" stroke-width="1.4"/>
<path fill-rule="evenodd" clip-rule="evenodd" d="M177 233C179.209 233 181 231.209 181 229C181 226.791 179.209 225 177 225C174.791 225 173 226.791 173 229C173 231.209 174.791 233 177 233Z" fill="#00B69B" stroke="white" stroke-width="1.4"/>
<path fill-rule="evenodd" clip-rule="evenodd" d="M218 272C220.209 272 222 270.209 222 268C222 265.791 220.209 264 218 264C215.791 264 214 265.791 214 268C214 270.209 215.791 272 218 272Z" fill="#00B69B" stroke="white" stroke-width="1.4"/>
<path fill-rule="evenodd" clip-rule="evenodd" d="M281 308C283.209 308 285 306.209 285 304C285 301.791 283.209 300 281 300C278.791 300 277 301.791 277 304C277 306.209 278.791 308 281 308Z" fill="#00B69B" stroke="white" stroke-width="1.4"/>
<path fill-rule="evenodd" clip-rule="evenodd" d="M341 258C343.209 258 345 256.209 345 254C345 251.791 343.209 250 341 250C338.791 250 337 251.791 337 254C337 256.209 338.791 258 341 258Z" fill="#00B69B" stroke="white" stroke-width="1.4"/>
<path fill-rule="evenodd" clip-rule="evenodd" d="M318 287C320.209 287 322 285.209 322 283C322 280.791 320.209 279 318 279C315.791 279 314 280.791 314 283C314 285.209 315.791 287 318 287Z" fill="#00B69B" stroke="white" stroke-width="1.4"/>
<path fill-rule="evenodd" clip-rule="evenodd" d="M378 183C380.209 183 382 181.209 382 179C382 176.791 380.209 175 378 175C375.791 175 374 176.791 374 179C374 181.209 375.791 183 378 183Z" fill="#00B69B" stroke="white" stroke-width="1.4"/>
<path fill-rule="evenodd" clip-rule="evenodd" d="M385 148C387.209 148 389 146.209 389 144C389 141.791 387.209 140 385 140C382.791 140 381 141.791 381 144C381 146.209 382.791 148 385 148Z" fill="#00B69B" stroke="white" stroke-width="1.4"/>
<path fill-rule="evenodd" clip-rule="evenodd" d="M364 219C366.209 219 368 217.209 368 215C368 212.791 366.209 211 364 211C361.791 211 360 212.791 360 215C360 217.209 361.791 219 364 219Z" fill="#00B69B" stroke="white" stroke-width="1.4"/>
<path d="M95 303C95 303 107.809 270.042 114.044 256.933C120.645 243.054 127.12 231.693 133.469 222.85C139.99 213.767 146.378 207.341 152.632 203.571C157.749 200.487 170.615 200.034 172.003 200.367C179.24 202.103 185.399 206.33 191.247 211.759C197.765 217.81 203.897 225.354 210.705 232.605C216.397 238.666 222.561 244.522 229.819 249.13C235.456 252.71 241.753 255.536 249 257.119C253.152 258.027 266.373 258.394 268.334 258.136C274.791 257.29 281.222 255.093 287.52 251.84C294.248 248.366 300.825 243.687 307.125 238.161C313.906 232.212 320.366 225.282 326.345 217.816C333.578 208.785 340.109 198.971 345.656 189.161C357.525 168.172 364.891 147.207 365 134" stroke="#4880FF" stroke-width="4" stroke-linecap="round"/>
<path fill-rule="evenodd" clip-rule="evenodd" d="M93.5 309C95.433 309 97 307.657 97 306C97 304.343 95.433 303 93.5 303C91.567 303 90 304.343 90 306C90 307.657 91.567 309 93.5 309Z" fill="#00B69B" stroke="#4880FF" stroke-width="1.4"/>
<path fill-rule="evenodd" clip-rule="evenodd" d="M112.5 263C114.433 263 116 261.657 116 260C116 258.343 114.433 257 112.5 257C110.567 257 109 258.343 109 260C109 261.657 110.567 263 112.5 263Z" fill="#00B69B" stroke="#4880FF" stroke-width="1.4"/>
<path fill-rule="evenodd" clip-rule="evenodd" d="M130.5 230C132.433 230 134 228.657 134 227C134 225.343 132.433 224 130.5 224C128.567 224 127 225.343 127 227C127 228.657 128.567 230 130.5 230Z" fill="#00B69B" stroke="#4880FF" stroke-width="1.4"/>
<path fill-rule="evenodd" clip-rule="evenodd" d="M171.5 203C173.433 203 175 201.657 175 200C175 198.343 173.433 197 171.5 197C169.567 197 168 198.343 168 200C168 201.657 169.567 203 171.5 203Z" fill="#00B69B" stroke="#4880FF" stroke-width="1.4"/>
<path fill-rule="evenodd" clip-rule="evenodd" d="M209.5 234C211.433 234 213 232.657 213 231C213 229.343 211.433 228 209.5 228C207.567 228 206 229.343 206 231C206 232.657 207.567 234 209.5 234Z" fill="#00B69B" stroke="#4880FF" stroke-width="1.4"/>
<path fill-rule="evenodd" clip-rule="evenodd" d="M268.5 262C270.433 262 272 260.657 272 259C272 257.343 270.433 256 268.5 256C266.567 256 265 257.343 265 259C265 260.657 266.567 262 268.5 262Z" fill="#00B69B" stroke="#4880FF" stroke-width="1.4"/>
<path fill-rule="evenodd" clip-rule="evenodd" d="M324.5 223C326.433 223 328 221.657 328 220C328 218.343 326.433 217 324.5 217C322.567 217 321 218.343 321 220C321 221.657 322.567 223 324.5 223Z" fill="#00B69B" stroke="#4880FF" stroke-width="1.4"/>
<path fill-rule="evenodd" clip-rule="evenodd" d="M302.5 246C304.433 246 306 244.657 306 243C306 241.343 304.433 240 302.5 240C300.567 240 299 241.343 299 243C299 244.657 300.567 246 302.5 246Z" fill="#00B69B" stroke="#4880FF" stroke-width="1.4"/>
<path fill-rule="evenodd" clip-rule="evenodd" d="M358.5 164C360.433 164 362 162.657 362 161C362 159.343 360.433 158 358.5 158C356.567 158 355 159.343 355 161C355 162.657 356.567 164 358.5 164Z" fill="#00B69B" stroke="#4880FF" stroke-width="1.4"/>
<path fill-rule="evenodd" clip-rule="evenodd" d="M365.5 137C367.433 137 369 135.657 369 134C369 132.343 367.433 131 365.5 131C363.567 131 362 132.343 362 134C362 135.657 363.567 137 365.5 137Z" fill="#00B69B" stroke="#4880FF" stroke-width="1.4"/>
<path fill-rule="evenodd" clip-rule="evenodd" d="M345.5 193C347.433 193 349 191.657 349 190C349 188.343 347.433 187 345.5 187C343.567 187 342 188.343 342 190C342 191.657 343.567 193 345.5 193Z" fill="#00B69B" stroke="#4880FF" stroke-width="1.4"/>
<path opacity="0.2" d="M94 363.5H392" stroke="#979797" stroke-width="0.3" stroke-linecap="square"/>
<path opacity="0.2" d="M94 304.5H392" stroke="#979797" stroke-width="0.3" stroke-linecap="square"/>
<path opacity="0.2" d="M94 245.5H392" stroke="#979797" stroke-width="0.3" stroke-linecap="square"/>
<path opacity="0.2" d="M94 186.5H392" stroke="#979797" stroke-width="0.3" stroke-linecap="square"/>
<path opacity="0.2" d="M94 127.5H392" stroke="#979797" stroke-width="0.3" stroke-linecap="square"/>
<path d="M369.504 390.98V392H363.96V391.076L366.876 387.884C367.252 387.476 367.524 387.104 367.692 386.768C367.86 386.432 367.944 386.1 367.944 385.772C367.944 385.34 367.82 385.012 367.572 384.788C367.324 384.564 366.968 384.452 366.504 384.452C365.712 384.452 364.928 384.76 364.152 385.376L363.72 384.464C364.056 384.152 364.48 383.904 364.992 383.72C365.504 383.536 366.02 383.444 366.54 383.444C367.348 383.444 367.988 383.648 368.46 384.056C368.932 384.456 369.168 385 369.168 385.688C369.168 386.176 369.06 386.64 368.844 387.08C368.636 387.52 368.284 388.012 367.788 388.556L365.52 390.98H369.504ZM373.795 392.096C372.811 392.096 372.059 391.728 371.539 390.992C371.027 390.256 370.771 389.184 370.771 387.776C370.771 386.368 371.027 385.296 371.539 384.56C372.059 383.816 372.811 383.444 373.795 383.444C374.779 383.444 375.527 383.812 376.039 384.548C376.559 385.284 376.819 386.356 376.819 387.764C376.819 389.18 376.559 390.256 376.039 390.992C375.527 391.728 374.779 392.096 373.795 392.096ZM373.795 391.1C374.411 391.1 374.863 390.832 375.151 390.296C375.439 389.76 375.583 388.916 375.583 387.764C375.583 386.62 375.439 385.784 375.151 385.256C374.863 384.72 374.411 384.452 373.795 384.452C373.179 384.452 372.727 384.72 372.439 385.256C372.151 385.784 372.007 386.62 372.007 387.764C372.007 388.908 372.151 389.752 372.439 390.296C372.727 390.832 373.179 391.1 373.795 391.1ZM381.951 390.98H383.811V392H378.867V390.98H380.715V385.016L379.239 385.916L378.711 384.992L381.063 383.54H381.951V390.98ZM387.922 383.444C388.97 383.444 389.774 383.804 390.334 384.524C390.902 385.236 391.186 386.256 391.186 387.584C391.186 388.528 391.05 389.34 390.778 390.02C390.514 390.692 390.13 391.208 389.626 391.568C389.13 391.92 388.53 392.096 387.826 392.096C387.33 392.096 386.846 392.008 386.374 391.832C385.91 391.656 385.502 391.404 385.15 391.076L385.582 390.164C386.35 390.78 387.086 391.088 387.79 391.088C388.478 391.088 389.01 390.788 389.386 390.188C389.762 389.58 389.95 388.72 389.95 387.608V387.584C389.774 387.992 389.486 388.316 389.086 388.556C388.694 388.788 388.25 388.904 387.754 388.904C387.25 388.904 386.798 388.792 386.398 388.568C385.998 388.336 385.686 388.016 385.462 387.608C385.246 387.2 385.138 386.732 385.138 386.204C385.138 385.676 385.258 385.204 385.498 384.788C385.738 384.364 386.066 384.036 386.482 383.804C386.906 383.564 387.386 383.444 387.922 383.444ZM387.982 387.896C388.486 387.896 388.894 387.74 389.206 387.428C389.526 387.108 389.686 386.692 389.686 386.18C389.686 385.66 389.53 385.244 389.218 384.932C388.906 384.612 388.494 384.452 387.982 384.452C387.486 384.452 387.086 384.612 386.782 384.932C386.486 385.244 386.338 385.66 386.338 386.18C386.338 386.692 386.486 387.108 386.782 387.428C387.086 387.74 387.486 387.896 387.982 387.896Z" fill="#292C2F" fill-opacity="0.4"/>
<path d="M300.504 390.98V392H294.96V391.076L297.876 387.884C298.252 387.476 298.524 387.104 298.692 386.768C298.86 386.432 298.944 386.1 298.944 385.772C298.944 385.34 298.82 385.012 298.572 384.788C298.324 384.564 297.968 384.452 297.504 384.452C296.712 384.452 295.928 384.76 295.152 385.376L294.72 384.464C295.056 384.152 295.48 383.904 295.992 383.72C296.504 383.536 297.02 383.444 297.54 383.444C298.348 383.444 298.988 383.648 299.46 384.056C299.932 384.456 300.168 385 300.168 385.688C300.168 386.176 300.06 386.64 299.844 387.08C299.636 387.52 299.284 388.012 298.788 388.556L296.52 390.98H300.504ZM304.795 392.096C303.811 392.096 303.059 391.728 302.539 390.992C302.027 390.256 301.771 389.184 301.771 387.776C301.771 386.368 302.027 385.296 302.539 384.56C303.059 383.816 303.811 383.444 304.795 383.444C305.779 383.444 306.527 383.812 307.039 384.548C307.559 385.284 307.819 386.356 307.819 387.764C307.819 389.18 307.559 390.256 307.039 390.992C306.527 391.728 305.779 392.096 304.795 392.096ZM304.795 391.1C305.411 391.1 305.863 390.832 306.151 390.296C306.439 389.76 306.583 388.916 306.583 387.764C306.583 386.62 306.439 385.784 306.151 385.256C305.863 384.72 305.411 384.452 304.795 384.452C304.179 384.452 303.727 384.72 303.439 385.256C303.151 385.784 303.007 386.62 303.007 387.764C303.007 388.908 303.151 389.752 303.439 390.296C303.727 390.832 304.179 391.1 304.795 391.1ZM312.951 390.98H314.811V392H309.867V390.98H311.715V385.016L310.239 385.916L309.711 384.992L312.063 383.54H312.951V390.98ZM320.722 387.656C321.218 387.8 321.602 388.056 321.874 388.424C322.146 388.792 322.282 389.232 322.282 389.744C322.282 390.48 322.01 391.056 321.466 391.472C320.93 391.88 320.17 392.084 319.186 392.084C318.202 392.084 317.438 391.88 316.894 391.472C316.358 391.056 316.09 390.48 316.09 389.744C316.09 389.224 316.226 388.78 316.498 388.412C316.778 388.044 317.166 387.792 317.662 387.656C317.238 387.496 316.902 387.244 316.654 386.9C316.414 386.556 316.294 386.156 316.294 385.7C316.294 385.004 316.55 384.456 317.062 384.056C317.574 383.648 318.282 383.444 319.186 383.444C320.09 383.444 320.798 383.648 321.31 384.056C321.822 384.456 322.078 385.004 322.078 385.7C322.078 386.156 321.954 386.56 321.706 386.912C321.466 387.256 321.138 387.504 320.722 387.656ZM319.186 384.44C318.626 384.44 318.202 384.56 317.914 384.8C317.626 385.032 317.482 385.368 317.482 385.808C317.482 386.264 317.626 386.612 317.914 386.852C318.202 387.092 318.626 387.212 319.186 387.212C319.746 387.212 320.17 387.092 320.458 386.852C320.746 386.612 320.89 386.264 320.89 385.808C320.89 385.368 320.746 385.032 320.458 384.8C320.17 384.56 319.746 384.44 319.186 384.44ZM319.186 391.088C320.458 391.088 321.094 390.612 321.094 389.66C321.094 388.7 320.458 388.22 319.186 388.22C317.914 388.22 317.278 388.7 317.278 389.66C317.278 390.612 317.914 391.088 319.186 391.088Z" fill="#292C2F" fill-opacity="0.4"/>
<path d="M231.504 390.98V392H225.96V391.076L228.876 387.884C229.252 387.476 229.524 387.104 229.692 386.768C229.86 386.432 229.944 386.1 229.944 385.772C229.944 385.34 229.82 385.012 229.572 384.788C229.324 384.564 228.968 384.452 228.504 384.452C227.712 384.452 226.928 384.76 226.152 385.376L225.72 384.464C226.056 384.152 226.48 383.904 226.992 383.72C227.504 383.536 228.02 383.444 228.54 383.444C229.348 383.444 229.988 383.648 230.46 384.056C230.932 384.456 231.168 385 231.168 385.688C231.168 386.176 231.06 386.64 230.844 387.08C230.636 387.52 230.284 388.012 229.788 388.556L227.52 390.98H231.504ZM235.795 392.096C234.811 392.096 234.059 391.728 233.539 390.992C233.027 390.256 232.771 389.184 232.771 387.776C232.771 386.368 233.027 385.296 233.539 384.56C234.059 383.816 234.811 383.444 235.795 383.444C236.779 383.444 237.527 383.812 238.039 384.548C238.559 385.284 238.819 386.356 238.819 387.764C238.819 389.18 238.559 390.256 238.039 390.992C237.527 391.728 236.779 392.096 235.795 392.096ZM235.795 391.1C236.411 391.1 236.863 390.832 237.151 390.296C237.439 389.76 237.583 388.916 237.583 387.764C237.583 386.62 237.439 385.784 237.151 385.256C236.863 384.72 236.411 384.452 235.795 384.452C235.179 384.452 234.727 384.72 234.439 385.256C234.151 385.784 234.007 386.62 234.007 387.764C234.007 388.908 234.151 389.752 234.439 390.296C234.727 390.832 235.179 391.1 235.795 391.1ZM243.951 390.98H245.811V392H240.867V390.98H242.715V385.016L241.239 385.916L240.711 384.992L243.063 383.54H243.951V390.98ZM247.33 383.54H253.054V384.464L249.142 392H247.822L251.71 384.56H247.33V383.54Z" fill="#292C2F" fill-opacity="0.4"/>
<path d="M162.504 390.98V392H156.96V391.076L159.876 387.884C160.252 387.476 160.524 387.104 160.692 386.768C160.86 386.432 160.944 386.1 160.944 385.772C160.944 385.34 160.82 385.012 160.572 384.788C160.324 384.564 159.968 384.452 159.504 384.452C158.712 384.452 157.928 384.76 157.152 385.376L156.72 384.464C157.056 384.152 157.48 383.904 157.992 383.72C158.504 383.536 159.02 383.444 159.54 383.444C160.348 383.444 160.988 383.648 161.46 384.056C161.932 384.456 162.168 385 162.168 385.688C162.168 386.176 162.06 386.64 161.844 387.08C161.636 387.52 161.284 388.012 160.788 388.556L158.52 390.98H162.504ZM166.795 392.096C165.811 392.096 165.059 391.728 164.539 390.992C164.027 390.256 163.771 389.184 163.771 387.776C163.771 386.368 164.027 385.296 164.539 384.56C165.059 383.816 165.811 383.444 166.795 383.444C167.779 383.444 168.527 383.812 169.039 384.548C169.559 385.284 169.819 386.356 169.819 387.764C169.819 389.18 169.559 390.256 169.039 390.992C168.527 391.728 167.779 392.096 166.795 392.096ZM166.795 391.1C167.411 391.1 167.863 390.832 168.151 390.296C168.439 389.76 168.583 388.916 168.583 387.764C168.583 386.62 168.439 385.784 168.151 385.256C167.863 384.72 167.411 384.452 166.795 384.452C166.179 384.452 165.727 384.72 165.439 385.256C165.151 385.784 165.007 386.62 165.007 387.764C165.007 388.908 165.151 389.752 165.439 390.296C165.727 390.832 166.179 391.1 166.795 391.1ZM174.951 390.98H176.811V392H171.867V390.98H173.715V385.016L172.239 385.916L171.711 384.992L174.063 383.54H174.951V390.98ZM181.618 386.636C182.13 386.636 182.582 386.752 182.974 386.984C183.374 387.208 183.682 387.524 183.898 387.932C184.122 388.34 184.234 388.808 184.234 389.336C184.234 389.864 184.114 390.34 183.874 390.764C183.642 391.18 183.314 391.508 182.89 391.748C182.466 391.98 181.99 392.096 181.462 392.096C180.414 392.096 179.606 391.74 179.038 391.028C178.478 390.308 178.198 389.284 178.198 387.956C178.198 387.012 178.33 386.204 178.594 385.532C178.858 384.852 179.242 384.336 179.746 383.984C180.25 383.624 180.85 383.444 181.546 383.444C182.042 383.444 182.526 383.532 182.998 383.708C183.47 383.884 183.882 384.136 184.234 384.464L183.79 385.376C183.038 384.76 182.302 384.452 181.582 384.452C180.894 384.452 180.362 384.756 179.986 385.364C179.61 385.964 179.422 386.82 179.422 387.932V387.968C179.598 387.552 179.882 387.228 180.274 386.996C180.674 386.756 181.122 386.636 181.618 386.636ZM181.402 391.088C181.898 391.088 182.294 390.932 182.59 390.62C182.886 390.3 183.034 389.88 183.034 389.36C183.034 388.84 182.882 388.424 182.578 388.112C182.282 387.8 181.886 387.644 181.39 387.644C180.894 387.644 180.486 387.804 180.166 388.124C179.846 388.436 179.686 388.848 179.686 389.36C179.686 389.872 179.842 390.288 180.154 390.608C180.474 390.928 180.89 391.088 181.402 391.088Z" fill="#292C2F" fill-opacity="0.4"/>
<path d="M93.504 390.98V392H87.96V391.076L90.876 387.884C91.252 387.476 91.524 387.104 91.692 386.768C91.86 386.432 91.944 386.1 91.944 385.772C91.944 385.34 91.82 385.012 91.572 384.788C91.324 384.564 90.968 384.452 90.504 384.452C89.712 384.452 88.928 384.76 88.152 385.376L87.72 384.464C88.056 384.152 88.48 383.904 88.992 383.72C89.504 383.536 90.02 383.444 90.54 383.444C91.348 383.444 91.988 383.648 92.46 384.056C92.932 384.456 93.168 385 93.168 385.688C93.168 386.176 93.06 386.64 92.844 387.08C92.636 387.52 92.284 388.012 91.788 388.556L89.52 390.98H93.504ZM97.7953 392.096C96.8113 392.096 96.0593 391.728 95.5393 390.992C95.0273 390.256 94.7713 389.184 94.7713 387.776C94.7713 386.368 95.0273 385.296 95.5393 384.56C96.0593 383.816 96.8113 383.444 97.7953 383.444C98.7793 383.444 99.5273 383.812 100.039 384.548C100.559 385.284 100.819 386.356 100.819 387.764C100.819 389.18 100.559 390.256 100.039 390.992C99.5273 391.728 98.7793 392.096 97.7953 392.096ZM97.7953 391.1C98.4113 391.1 98.8633 390.832 99.1513 390.296C99.4393 389.76 99.5833 388.916 99.5833 387.764C99.5833 386.62 99.4393 385.784 99.1513 385.256C98.8633 384.72 98.4113 384.452 97.7953 384.452C97.1793 384.452 96.7273 384.72 96.4393 385.256C96.1513 385.784 96.0073 386.62 96.0073 387.764C96.0073 388.908 96.1513 389.752 96.4393 390.296C96.7273 390.832 97.1793 391.1 97.7953 391.1ZM105.951 390.98H107.811V392H102.867V390.98H104.715V385.016L103.239 385.916L102.711 384.992L105.063 383.54H105.951V390.98ZM112.594 386.648C113.122 386.648 113.586 386.76 113.986 386.984C114.386 387.208 114.694 387.524 114.91 387.932C115.134 388.34 115.246 388.808 115.246 389.336C115.246 389.88 115.122 390.36 114.874 390.776C114.634 391.192 114.286 391.516 113.83 391.748C113.382 391.972 112.858 392.084 112.258 392.084C111.738 392.084 111.222 391.992 110.71 391.808C110.206 391.624 109.786 391.376 109.45 391.064L109.882 390.152C110.642 390.768 111.438 391.076 112.27 391.076C112.83 391.076 113.266 390.928 113.578 390.632C113.89 390.328 114.046 389.904 114.046 389.36C114.046 388.84 113.89 388.424 113.578 388.112C113.266 387.8 112.85 387.644 112.33 387.644C111.586 387.644 110.974 387.932 110.494 388.508H109.702V383.54H114.886V384.536H110.926V387.2C111.366 386.832 111.922 386.648 112.594 386.648Z" fill="#292C2F" fill-opacity="0.4"/>
<path d="M82.4047 367.096C81.4207 367.096 80.6687 366.728 80.1487 365.992C79.6367 365.256 79.3807 364.184 79.3807 362.776C79.3807 361.368 79.6367 360.296 80.1487 359.56C80.6687 358.816 81.4207 358.444 82.4047 358.444C83.3887 358.444 84.1367 358.812 84.6487 359.548C85.1687 360.284 85.4287 361.356 85.4287 362.764C85.4287 364.18 85.1687 365.256 84.6487 365.992C84.1367 366.728 83.3887 367.096 82.4047 367.096ZM82.4047 366.1C83.0207 366.1 83.4727 365.832 83.7607 365.296C84.0487 364.76 84.1927 363.916 84.1927 362.764C84.1927 361.62 84.0487 360.784 83.7607 360.256C83.4727 359.72 83.0207 359.452 82.4047 359.452C81.7887 359.452 81.3367 359.72 81.0487 360.256C80.7607 360.784 80.6167 361.62 80.6167 362.764C80.6167 363.908 80.7607 364.752 81.0487 365.296C81.3367 365.832 81.7887 366.1 82.4047 366.1Z" fill="#292C2F" fill-opacity="0.4"/>
<path d="M78.1134 306.98V308H72.5694V307.076L75.4854 303.884C75.8614 303.476 76.1334 303.104 76.3014 302.768C76.4694 302.432 76.5534 302.1 76.5534 301.772C76.5534 301.34 76.4294 301.012 76.1814 300.788C75.9334 300.564 75.5774 300.452 75.1134 300.452C74.3214 300.452 73.5374 300.76 72.7614 301.376L72.3294 300.464C72.6654 300.152 73.0894 299.904 73.6014 299.72C74.1134 299.536 74.6294 299.444 75.1494 299.444C75.9574 299.444 76.5974 299.648 77.0694 300.056C77.5414 300.456 77.7774 301 77.7774 301.688C77.7774 302.176 77.6694 302.64 77.4534 303.08C77.2454 303.52 76.8934 304.012 76.3974 304.556L74.1294 306.98H78.1134ZM82.8127 302.648C83.3407 302.648 83.8047 302.76 84.2047 302.984C84.6047 303.208 84.9127 303.524 85.1287 303.932C85.3527 304.34 85.4647 304.808 85.4647 305.336C85.4647 305.88 85.3407 306.36 85.0927 306.776C84.8527 307.192 84.5047 307.516 84.0487 307.748C83.6007 307.972 83.0767 308.084 82.4767 308.084C81.9567 308.084 81.4407 307.992 80.9287 307.808C80.4247 307.624 80.0047 307.376 79.6687 307.064L80.1007 306.152C80.8607 306.768 81.6567 307.076 82.4887 307.076C83.0487 307.076 83.4847 306.928 83.7967 306.632C84.1087 306.328 84.2647 305.904 84.2647 305.36C84.2647 304.84 84.1087 304.424 83.7967 304.112C83.4847 303.8 83.0687 303.644 82.5487 303.644C81.8047 303.644 81.1927 303.932 80.7127 304.508H79.9207V299.54H85.1047V300.536H81.1447V303.2C81.5847 302.832 82.1407 302.648 82.8127 302.648Z" fill="#292C2F" fill-opacity="0.4"/>
<path d="M75.6174 243.648C76.1454 243.648 76.6094 243.76 77.0094 243.984C77.4094 244.208 77.7174 244.524 77.9334 244.932C78.1574 245.34 78.2694 245.808 78.2694 246.336C78.2694 246.88 78.1454 247.36 77.8974 247.776C77.6574 248.192 77.3094 248.516 76.8534 248.748C76.4054 248.972 75.8814 249.084 75.2814 249.084C74.7614 249.084 74.2454 248.992 73.7334 248.808C73.2294 248.624 72.8094 248.376 72.4734 248.064L72.9054 247.152C73.6654 247.768 74.4614 248.076 75.2934 248.076C75.8534 248.076 76.2894 247.928 76.6014 247.632C76.9134 247.328 77.0694 246.904 77.0694 246.36C77.0694 245.84 76.9134 245.424 76.6014 245.112C76.2894 244.8 75.8734 244.644 75.3534 244.644C74.6094 244.644 73.9974 244.932 73.5174 245.508H72.7254V240.54H77.9094V241.536H73.9494V244.2C74.3894 243.832 74.9454 243.648 75.6174 243.648ZM82.4047 249.096C81.4207 249.096 80.6687 248.728 80.1487 247.992C79.6367 247.256 79.3807 246.184 79.3807 244.776C79.3807 243.368 79.6367 242.296 80.1487 241.56C80.6687 240.816 81.4207 240.444 82.4047 240.444C83.3887 240.444 84.1367 240.812 84.6487 241.548C85.1687 242.284 85.4287 243.356 85.4287 244.764C85.4287 246.18 85.1687 247.256 84.6487 247.992C84.1367 248.728 83.3887 249.096 82.4047 249.096ZM82.4047 248.1C83.0207 248.1 83.4727 247.832 83.7607 247.296C84.0487 246.76 84.1927 245.916 84.1927 244.764C84.1927 243.62 84.0487 242.784 83.7607 242.256C83.4727 241.72 83.0207 241.452 82.4047 241.452C81.7887 241.452 81.3367 241.72 81.0487 242.256C80.7607 242.784 80.6167 243.62 80.6167 244.764C80.6167 245.908 80.7607 246.752 81.0487 247.296C81.3367 247.832 81.7887 248.1 82.4047 248.1Z" fill="#292C2F" fill-opacity="0.4"/>
<path d="M72.3534 181.54H78.0774V182.464L74.1654 190H72.8454L76.7334 182.56H72.3534V181.54ZM82.8127 184.648C83.3407 184.648 83.8047 184.76 84.2047 184.984C84.6047 185.208 84.9127 185.524 85.1287 185.932C85.3527 186.34 85.4647 186.808 85.4647 187.336C85.4647 187.88 85.3407 188.36 85.0927 188.776C84.8527 189.192 84.5047 189.516 84.0487 189.748C83.6007 189.972 83.0767 190.084 82.4767 190.084C81.9567 190.084 81.4407 189.992 80.9287 189.808C80.4247 189.624 80.0047 189.376 79.6687 189.064L80.1007 188.152C80.8607 188.768 81.6567 189.076 82.4887 189.076C83.0487 189.076 83.4847 188.928 83.7967 188.632C84.1087 188.328 84.2647 187.904 84.2647 187.36C84.2647 186.84 84.1087 186.424 83.7967 186.112C83.4847 185.8 83.0687 185.644 82.5487 185.644C81.8047 185.644 81.1927 185.932 80.7127 186.508H79.9207V181.54H85.1047V182.536H81.1447V185.2C81.5847 184.832 82.1407 184.648 82.8127 184.648Z" fill="#292C2F" fill-opacity="0.4"/>
<path d="M68.9741 129.98H70.8341V131H65.8901V129.98H67.7381V124.016L66.2621 124.916L65.7341 123.992L68.0861 122.54H68.9741V129.98ZM75.2094 131.096C74.2254 131.096 73.4734 130.728 72.9534 129.992C72.4414 129.256 72.1854 128.184 72.1854 126.776C72.1854 125.368 72.4414 124.296 72.9534 123.56C73.4734 122.816 74.2254 122.444 75.2094 122.444C76.1934 122.444 76.9414 122.812 77.4534 123.548C77.9734 124.284 78.2334 125.356 78.2334 126.764C78.2334 128.18 77.9734 129.256 77.4534 129.992C76.9414 130.728 76.1934 131.096 75.2094 131.096ZM75.2094 130.1C75.8254 130.1 76.2774 129.832 76.5654 129.296C76.8534 128.76 76.9974 127.916 76.9974 126.764C76.9974 125.62 76.8534 124.784 76.5654 124.256C76.2774 123.72 75.8254 123.452 75.2094 123.452C74.5934 123.452 74.1414 123.72 73.8534 124.256C73.5654 124.784 73.4214 125.62 73.4214 126.764C73.4214 127.908 73.5654 128.752 73.8534 129.296C74.1414 129.832 74.5934 130.1 75.2094 130.1ZM82.4047 131.096C81.4207 131.096 80.6687 130.728 80.1487 129.992C79.6367 129.256 79.3807 128.184 79.3807 126.776C79.3807 125.368 79.6367 124.296 80.1487 123.56C80.6687 122.816 81.4207 122.444 82.4047 122.444C83.3887 122.444 84.1367 122.812 84.6487 123.548C85.1687 124.284 85.4287 125.356 85.4287 126.764C85.4287 128.18 85.1687 129.256 84.6487 129.992C84.1367 130.728 83.3887 131.096 82.4047 131.096ZM82.4047 130.1C83.0207 130.1 83.4727 129.832 83.7607 129.296C84.0487 128.76 84.1927 127.916 84.1927 126.764C84.1927 125.62 84.0487 124.784 83.7607 124.256C83.4727 123.72 83.0207 123.452 82.4047 123.452C81.7887 123.452 81.3367 123.72 81.0487 124.256C80.7607 124.784 80.6167 125.62 80.6167 126.764C80.6167 127.908 80.7607 128.752 81.0487 129.296C81.3367 129.832 81.7887 130.1 82.4047 130.1Z" fill="#292C2F" fill-opacity="0.4"/>
<path d="M78.93 89.198C77.742 89.198 76.6273 89.0367 75.586 88.714C74.5447 88.3913 73.6647 87.9367 72.946 87.35L73.892 85.282C74.64 85.854 75.4247 86.272 76.246 86.536C77.082 86.8 77.984 86.932 78.952 86.932C80.0227 86.932 80.844 86.7487 81.416 86.382C82.0027 86.0007 82.296 85.4727 82.296 84.798C82.296 84.2113 82.0247 83.764 81.482 83.456C80.954 83.148 80.0667 82.8547 78.82 82.576C77.5293 82.2973 76.4807 81.9747 75.674 81.608C74.8673 81.2413 74.2587 80.772 73.848 80.2C73.4373 79.628 73.232 78.902 73.232 78.022C73.232 77.1127 73.4813 76.2987 73.98 75.58C74.4787 74.8613 75.1827 74.304 76.092 73.908C77.0013 73.4973 78.05 73.292 79.238 73.292C80.3233 73.292 81.3573 73.4607 82.34 73.798C83.3227 74.1207 84.1293 74.568 84.76 75.14L83.814 77.208C82.4353 76.108 80.91 75.558 79.238 75.558C78.2407 75.558 77.4487 75.7633 76.862 76.174C76.29 76.57 76.004 77.1273 76.004 77.846C76.004 78.4473 76.2607 78.9093 76.774 79.232C77.2873 79.5547 78.16 79.8553 79.392 80.134C80.6973 80.4273 81.7533 80.7573 82.56 81.124C83.3813 81.476 84.0047 81.9307 84.43 82.488C84.87 83.0453 85.09 83.7493 85.09 84.6C85.09 85.524 84.8407 86.338 84.342 87.042C83.858 87.7313 83.1467 88.2667 82.208 88.648C81.284 89.0147 80.1913 89.198 78.93 89.198ZM92.0793 77.978C93.59 77.978 94.712 78.3447 95.4453 79.078C96.1786 79.8113 96.5453 80.9407 96.5453 82.466V89H93.9273V87.35C93.678 87.922 93.282 88.3693 92.7393 88.692C92.2113 89.0147 91.5953 89.176 90.8913 89.176C90.1726 89.176 89.52 89.0293 88.9333 88.736C88.3466 88.4427 87.8846 88.0393 87.5473 87.526C87.21 87.0127 87.0413 86.4407 87.0413 85.81C87.0413 85.018 87.2393 84.3947 87.6353 83.94C88.046 83.4853 88.706 83.1553 89.6153 82.95C90.5246 82.7447 91.7786 82.642 93.3773 82.642H93.9273V82.136C93.9273 81.4027 93.766 80.8747 93.4433 80.552C93.1353 80.2293 92.6146 80.068 91.8813 80.068C91.3093 80.068 90.708 80.1707 90.0773 80.376C89.4613 80.5667 88.8526 80.838 88.2513 81.19L87.4813 79.298C88.0826 78.9167 88.8086 78.6013 89.6593 78.352C90.51 78.1027 91.3166 77.978 92.0793 77.978ZM91.4413 87.196C92.1746 87.196 92.7686 86.954 93.2233 86.47C93.6926 85.9713 93.9273 85.3333 93.9273 84.556V84.094H93.5313C92.5486 84.094 91.786 84.138 91.2433 84.226C90.7006 84.314 90.312 84.468 90.0773 84.688C89.8426 84.908 89.7253 85.2087 89.7253 85.59C89.7253 86.0593 89.8866 86.448 90.2093 86.756C90.532 87.0493 90.9426 87.196 91.4413 87.196ZM99.3402 89V73.49H102.09V89H99.3402ZM114.364 84.116H107.038C107.126 85.1133 107.427 85.854 107.94 86.338C108.453 86.822 109.187 87.064 110.14 87.064C111.328 87.064 112.413 86.6827 113.396 85.92L114.188 87.812C113.689 88.2227 113.059 88.5527 112.296 88.802C111.548 89.0513 110.793 89.176 110.03 89.176C108.27 89.176 106.877 88.6773 105.85 87.68C104.838 86.6827 104.332 85.3187 104.332 83.588C104.332 82.488 104.552 81.5127 104.992 80.662C105.432 79.8113 106.048 79.1513 106.84 78.682C107.647 78.2127 108.556 77.978 109.568 77.978C111.049 77.978 112.215 78.4547 113.066 79.408C113.931 80.3613 114.364 81.674 114.364 83.346V84.116ZM109.634 79.914C108.901 79.914 108.307 80.1487 107.852 80.618C107.412 81.0873 107.141 81.762 107.038 82.642H112.01C111.981 81.7473 111.761 81.0727 111.35 80.618C110.939 80.1487 110.367 79.914 109.634 79.914ZM120.574 89.176C119.62 89.176 118.74 89.0587 117.934 88.824C117.142 88.5893 116.467 88.252 115.91 87.812L116.68 85.898C117.824 86.734 119.136 87.152 120.618 87.152C121.248 87.152 121.725 87.0493 122.048 86.844C122.385 86.6387 122.554 86.3453 122.554 85.964C122.554 85.6413 122.436 85.392 122.202 85.216C121.982 85.04 121.578 84.8787 120.992 84.732L119.232 84.336C118.234 84.116 117.494 83.7567 117.01 83.258C116.526 82.7593 116.284 82.114 116.284 81.322C116.284 80.662 116.467 80.0827 116.834 79.584C117.215 79.0707 117.736 78.6747 118.396 78.396C119.07 78.1173 119.848 77.978 120.728 77.978C121.49 77.978 122.224 78.0953 122.928 78.33C123.646 78.5647 124.277 78.8947 124.82 79.32L124.05 81.19C122.935 80.3833 121.82 79.98 120.706 79.98C120.104 79.98 119.635 80.09 119.298 80.31C118.96 80.53 118.792 80.838 118.792 81.234C118.792 81.5273 118.894 81.7693 119.1 81.96C119.32 82.1507 119.664 82.2973 120.134 82.4L121.96 82.818C123.03 83.0527 123.815 83.4267 124.314 83.94C124.812 84.4387 125.062 85.0987 125.062 85.92C125.062 86.9173 124.658 87.7093 123.852 88.296C123.045 88.8827 121.952 89.176 120.574 89.176ZM145.364 89L143.802 85.37H136.256L134.694 89H131.834L138.852 73.49H141.162L148.18 89H145.364ZM137.18 83.17H142.856L140.018 76.57L137.18 83.17ZM155.84 77.978C157.131 77.978 158.091 78.3447 158.722 79.078C159.353 79.8113 159.668 80.9187 159.668 82.4V89H156.918V82.554C156.918 81.718 156.757 81.1093 156.434 80.728C156.126 80.3467 155.635 80.156 154.96 80.156C154.168 80.156 153.53 80.4053 153.046 80.904C152.577 81.4027 152.342 82.07 152.342 82.906V89H149.592V78.242H152.276V79.848C152.643 79.2467 153.134 78.7847 153.75 78.462C154.366 78.1393 155.063 77.978 155.84 77.978ZM167.081 77.978C168.592 77.978 169.714 78.3447 170.447 79.078C171.181 79.8113 171.547 80.9407 171.547 82.466V89H168.929V87.35C168.68 87.922 168.284 88.3693 167.741 88.692C167.213 89.0147 166.597 89.176 165.893 89.176C165.175 89.176 164.522 89.0293 163.935 88.736C163.349 88.4427 162.887 88.0393 162.549 87.526C162.212 87.0127 162.043 86.4407 162.043 85.81C162.043 85.018 162.241 84.3947 162.637 83.94C163.048 83.4853 163.708 83.1553 164.617 82.95C165.527 82.7447 166.781 82.642 168.379 82.642H168.929V82.136C168.929 81.4027 168.768 80.8747 168.445 80.552C168.137 80.2293 167.617 80.068 166.883 80.068C166.311 80.068 165.71 80.1707 165.079 80.376C164.463 80.5667 163.855 80.838 163.253 81.19L162.483 79.298C163.085 78.9167 163.811 78.6013 164.661 78.352C165.512 78.1027 166.319 77.978 167.081 77.978ZM166.443 87.196C167.177 87.196 167.771 86.954 168.225 86.47C168.695 85.9713 168.929 85.3333 168.929 84.556V84.094H168.533C167.551 84.094 166.788 84.138 166.245 84.226C165.703 84.314 165.314 84.468 165.079 84.688C164.845 84.908 164.727 85.2087 164.727 85.59C164.727 86.0593 164.889 86.448 165.211 86.756C165.534 87.0493 165.945 87.196 166.443 87.196ZM174.342 89V73.49H177.092V89H174.342ZM187.474 78.264H190.18L183.712 92.96H180.94L182.898 88.582L178.41 78.264H181.314L184.35 85.854L187.474 78.264ZM197.287 87.108C197.61 87.108 197.947 87.086 198.299 87.042L198.167 89.088C197.727 89.132 197.324 89.154 196.957 89.154C195.447 89.154 194.332 88.8093 193.613 88.12C192.895 87.416 192.535 86.3747 192.535 84.996V80.31H190.467V78.242H192.535V75.03H195.285V78.242H198.123V80.31H195.285V84.952C195.285 86.3893 195.953 87.108 197.287 87.108ZM199.909 89V78.242H202.659V89H199.909ZM199.755 73.248H202.791V75.954H199.755V73.248ZM210.4 89.176C209.271 89.176 208.288 88.9487 207.452 88.494C206.631 88.0393 206 87.394 205.56 86.558C205.12 85.722 204.9 84.7467 204.9 83.632C204.9 82.5173 205.128 81.5347 205.582 80.684C206.052 79.8187 206.712 79.1513 207.562 78.682C208.413 78.2127 209.396 77.978 210.51 77.978C211.273 77.978 212.014 78.1027 212.732 78.352C213.466 78.5867 214.052 78.9093 214.492 79.32L213.7 81.256C213.246 80.8893 212.762 80.6107 212.248 80.42C211.75 80.2293 211.251 80.134 210.752 80.134C209.799 80.134 209.058 80.4347 208.53 81.036C208.002 81.6227 207.738 82.4733 207.738 83.588C207.738 84.688 208.002 85.5387 208.53 86.14C209.058 86.7267 209.799 87.02 210.752 87.02C211.251 87.02 211.75 86.9247 212.248 86.734C212.762 86.5433 213.246 86.2647 213.7 85.898L214.492 87.812C214.023 88.2373 213.422 88.5747 212.688 88.824C211.955 89.0587 211.192 89.176 210.4 89.176ZM220.197 89.176C219.243 89.176 218.363 89.0587 217.557 88.824C216.765 88.5893 216.09 88.252 215.533 87.812L216.303 85.898C217.447 86.734 218.759 87.152 220.241 87.152C220.871 87.152 221.348 87.0493 221.671 86.844C222.008 86.6387 222.177 86.3453 222.177 85.964C222.177 85.6413 222.059 85.392 221.825 85.216C221.605 85.04 221.201 84.8787 220.615 84.732L218.855 84.336C217.857 84.116 217.117 83.7567 216.633 83.258C216.149 82.7593 215.907 82.114 215.907 81.322C215.907 80.662 216.09 80.0827 216.457 79.584C216.838 79.0707 217.359 78.6747 218.019 78.396C218.693 78.1173 219.471 77.978 220.351 77.978C221.113 77.978 221.847 78.0953 222.551 78.33C223.269 78.5647 223.9 78.8947 224.443 79.32L223.673 81.19C222.558 80.3833 221.443 79.98 220.329 79.98C219.727 79.98 219.258 80.09 218.921 80.31C218.583 80.53 218.415 80.838 218.415 81.234C218.415 81.5273 218.517 81.7693 218.723 81.96C218.943 82.1507 219.287 82.2973 219.757 82.4L221.583 82.818C222.653 83.0527 223.438 83.4267 223.937 83.94C224.435 84.4387 224.685 85.0987 224.685 85.92C224.685 86.9173 224.281 87.7093 223.475 88.296C222.668 88.8827 221.575 89.176 220.197 89.176Z" fill="#202224"/>
<defs>
<filter id="filter0_d_0_11045" x="0" y="0" width="468" height="473" filterUnits="userSpaceOnUse" color-interpolation-filters="sRGB">
<feFlood flood-opacity="0" result="BackgroundImageFix"/>
<feColorMatrix in="SourceAlpha" type="matrix" values="0 0 0 0 0 0 0 0 0 0 0 0 0 0 0 0 0 0 127 0" result="hardAlpha"/>
<feOffset dx="6" dy="6"/>
<feGaussianBlur stdDeviation="27"/>
<feColorMatrix type="matrix" values="0 0 0 0 0 0 0 0 0 0 0 0 0 0 0 0 0 0 0.05 0"/>
<feBlend mode="normal" in2="BackgroundImageFix" result="effect1_dropShadow_0_11045"/>
<feBlend mode="normal" in="SourceGraphic" in2="effect1_dropShadow_0_11045" result="shape"/>
</filter>
</defs>
</svg>
