<svg width="126" height="19" viewBox="0 0 126 19" fill="none" xmlns="http://www.w3.org/2000/svg">
<path opacity="0.2" fill-rule="evenodd" clip-rule="evenodd" d="M80 12.88L75.2977 16.4721L77.261 10.89L72.3915 7.52786L78.3072 7.67003L80 2L81.6928 7.67003L87.6085 7.52786L82.739 10.89L84.7023 16.4721L80 12.88Z" fill="black"/>
<path fill-rule="evenodd" clip-rule="evenodd" d="M62 12.88L57.2977 16.4721L59.261 10.89L54.3915 7.52786L60.3072 7.67003L62 2L63.6928 7.67003L69.6085 7.52786L64.739 10.89L66.7023 16.4721L62 12.88Z" fill="#FF9500"/>
<path fill-rule="evenodd" clip-rule="evenodd" d="M44 12.88L39.2977 16.4721L41.261 10.89L36.3915 7.52786L42.3072 7.67003L44 2L45.6928 7.67003L51.6085 7.52786L46.739 10.89L48.7023 16.4721L44 12.88Z" fill="#FF9500"/>
<path fill-rule="evenodd" clip-rule="evenodd" d="M26 12.88L21.2977 16.4721L23.261 10.89L18.3915 7.52786L24.3072 7.67003L26 2L27.6928 7.67003L33.6085 7.52786L28.739 10.89L30.7023 16.4721L26 12.88Z" fill="#FF9500"/>
<path fill-rule="evenodd" clip-rule="evenodd" d="M8 12.88L3.29772 16.4721L5.26096 10.89L0.391548 7.52786L6.30718 7.67003L8 2L9.69282 7.67003L15.6085 7.52786L10.739 10.89L12.7023 16.4721L8 12.88Z" fill="#FF9500"/>
<path opacity="0.4" d="M95.22 16.716C94.5853 15.68 94.1233 14.6347 93.834 13.58C93.554 12.516 93.414 11.4287 93.414 10.318C93.414 9.20733 93.554 8.12467 93.834 7.07C94.1233 6.006 94.5853 4.956 95.22 3.92L96.214 4.312C95.766 5.36667 95.4393 6.37467 95.234 7.336C95.0287 8.29733 94.926 9.29133 94.926 10.318C94.926 11.3353 95.0287 12.3293 95.234 13.3C95.4393 14.2613 95.766 15.2693 96.214 16.324L95.22 16.716ZM98.1745 14V12.782H100.414V5.81L98.6645 6.902L98.0765 5.824L100.834 4.13H101.856V12.782H103.956V14H98.1745ZM108.81 14.126C108.148 14.126 107.518 14.028 106.92 13.832C106.323 13.6267 105.824 13.342 105.422 12.978L105.926 11.858C106.365 12.2127 106.818 12.474 107.284 12.642C107.751 12.81 108.246 12.894 108.768 12.894C109.44 12.894 109.949 12.7493 110.294 12.46C110.649 12.1707 110.826 11.7553 110.826 11.214C110.826 10.6727 110.649 10.2713 110.294 10.01C109.949 9.74867 109.445 9.618 108.782 9.618H107.256V8.4H108.642C109.23 8.4 109.692 8.25067 110.028 7.952C110.374 7.65333 110.546 7.24267 110.546 6.72C110.546 6.244 110.388 5.88 110.07 5.628C109.753 5.36667 109.3 5.236 108.712 5.236C107.714 5.236 106.841 5.59533 106.094 6.314L105.59 5.208C105.973 4.82533 106.449 4.53133 107.018 4.326C107.597 4.11133 108.199 4.004 108.824 4.004C109.814 4.004 110.584 4.23267 111.134 4.69C111.685 5.138 111.96 5.76333 111.96 6.566C111.96 7.10733 111.82 7.58333 111.54 7.994C111.27 8.40467 110.892 8.70333 110.406 8.89C110.994 9.03933 111.447 9.32867 111.764 9.758C112.082 10.178 112.24 10.696 112.24 11.312C112.24 12.18 111.932 12.866 111.316 13.37C110.71 13.874 109.874 14.126 108.81 14.126ZM114.63 14V12.782H116.87V5.81L115.12 6.902L114.532 5.824L117.29 4.13H118.312V12.782H120.412V14H114.63ZM122.704 16.716L121.71 16.324C122.149 15.2507 122.471 14.2333 122.676 13.272C122.881 12.3107 122.984 11.326 122.984 10.318C122.984 9.31 122.881 8.32533 122.676 7.364C122.471 6.40267 122.149 5.38533 121.71 4.312L122.704 3.92C123.339 4.96533 123.796 6.02 124.076 7.084C124.365 8.13867 124.51 9.21667 124.51 10.318C124.51 11.4287 124.365 12.516 124.076 13.58C123.796 14.6347 123.339 15.68 122.704 16.716Z" fill="black"/>
</svg>
