<svg width="126" height="19" viewBox="0 0 126 19" fill="none" xmlns="http://www.w3.org/2000/svg">
<path fill-rule="evenodd" clip-rule="evenodd" d="M80 12.88L75.2977 16.4721L77.261 10.89L72.3915 7.52786L78.3072 7.67003L80 2L81.6928 7.67003L87.6085 7.52786L82.739 10.89L84.7023 16.4721L80 12.88Z" fill="#FF9500"/>
<path fill-rule="evenodd" clip-rule="evenodd" d="M62 12.88L57.2977 16.4721L59.261 10.89L54.3915 7.52786L60.3072 7.67003L62 2L63.6928 7.67003L69.6085 7.52786L64.739 10.89L66.7023 16.4721L62 12.88Z" fill="#FF9500"/>
<path fill-rule="evenodd" clip-rule="evenodd" d="M44 12.88L39.2977 16.4721L41.261 10.89L36.3915 7.52786L42.3072 7.67003L44 2L45.6928 7.67003L51.6085 7.52786L46.739 10.89L48.7023 16.4721L44 12.88Z" fill="#FF9500"/>
<path fill-rule="evenodd" clip-rule="evenodd" d="M26 12.88L21.2977 16.4721L23.261 10.89L18.3915 7.52786L24.3072 7.67003L26 2L27.6928 7.67003L33.6085 7.52786L28.739 10.89L30.7023 16.4721L26 12.88Z" fill="#FF9500"/>
<path fill-rule="evenodd" clip-rule="evenodd" d="M8 12.88L3.29772 16.4721L5.26096 10.89L0.391548 7.52786L6.30718 7.67003L8 2L9.69282 7.67003L15.6085 7.52786L10.739 10.89L12.7023 16.4721L8 12.88Z" fill="#FF9500"/>
<path opacity="0.4" d="M95.192 16.716C94.5573 15.5867 94.1047 14.5133 93.834 13.496C93.5633 12.4693 93.428 11.41 93.428 10.318C93.428 9.226 93.5633 8.17133 93.834 7.154C94.1047 6.13667 94.5573 5.05867 95.192 3.92L96.158 4.312C95.6913 5.42267 95.36 6.45867 95.164 7.42C94.9773 8.372 94.884 9.338 94.884 10.318C94.884 11.298 94.9773 12.2687 95.164 13.23C95.36 14.182 95.6913 15.2133 96.158 16.324L95.192 16.716ZM101.186 7.742C101.783 7.742 102.31 7.87733 102.768 8.148C103.234 8.40933 103.594 8.778 103.846 9.254C104.107 9.73 104.238 10.276 104.238 10.892C104.238 11.508 104.098 12.0633 103.818 12.558C103.547 13.0433 103.164 13.426 102.67 13.706C102.175 13.9767 101.62 14.112 101.004 14.112C99.7811 14.112 98.8384 13.6967 98.1758 12.866C97.5224 12.026 97.1958 10.8313 97.1958 9.282C97.1958 8.18067 97.3498 7.238 97.6578 6.454C97.9658 5.66067 98.4138 5.05867 99.0018 4.648C99.5898 4.228 100.29 4.018 101.102 4.018C101.68 4.018 102.245 4.12067 102.796 4.326C103.346 4.53133 103.827 4.82533 104.238 5.208L103.72 6.272C102.842 5.55333 101.984 5.194 101.144 5.194C100.341 5.194 99.7204 5.54867 99.2818 6.258C98.8431 6.958 98.6238 7.95667 98.6238 9.254V9.296C98.8291 8.81067 99.1604 8.43267 99.6178 8.162C100.084 7.882 100.607 7.742 101.186 7.742ZM100.934 12.936C101.512 12.936 101.974 12.754 102.32 12.39C102.665 12.0167 102.838 11.5267 102.838 10.92C102.838 10.3133 102.66 9.828 102.306 9.464C101.96 9.1 101.498 8.918 100.92 8.918C100.341 8.918 99.8651 9.10467 99.4918 9.478C99.1184 9.842 98.9318 10.3227 98.9318 10.92C98.9318 11.5173 99.1138 12.0027 99.4778 12.376C99.8511 12.7493 100.336 12.936 100.934 12.936ZM110.352 8.932C110.931 9.1 111.369 9.38933 111.668 9.8C111.976 10.2013 112.13 10.71 112.13 11.326C112.13 12.1847 111.827 12.8613 111.22 13.356C110.613 13.8507 109.792 14.098 108.756 14.098C108.103 14.098 107.477 13.9953 106.88 13.79C106.283 13.5753 105.783 13.2813 105.382 12.908L105.9 11.844C106.787 12.5627 107.725 12.922 108.714 12.922C109.377 12.922 109.876 12.782 110.212 12.502C110.557 12.2127 110.73 11.788 110.73 11.228C110.73 10.6773 110.553 10.2667 110.198 9.996C109.853 9.716 109.325 9.576 108.616 9.576H107.398V8.414H108.392C109.073 8.414 109.591 8.274 109.946 7.994C110.31 7.70467 110.492 7.28467 110.492 6.734C110.492 6.23933 110.343 5.86133 110.044 5.6C109.745 5.32933 109.325 5.194 108.784 5.194C107.841 5.194 106.927 5.55333 106.04 6.272L105.536 5.208C105.928 4.83467 106.418 4.54533 107.006 4.34C107.603 4.12533 108.219 4.018 108.854 4.018C109.778 4.018 110.515 4.24667 111.066 4.704C111.617 5.16133 111.892 5.782 111.892 6.566C111.892 7.11667 111.757 7.602 111.486 8.022C111.215 8.442 110.837 8.74533 110.352 8.932ZM113.414 16.324C113.88 15.2133 114.207 14.182 114.394 13.23C114.59 12.2687 114.688 11.298 114.688 10.318C114.688 9.338 114.59 8.372 114.394 7.42C114.207 6.45867 113.88 5.42267 113.414 4.312L114.38 3.92C115.005 5.05867 115.453 6.13667 115.724 7.154C115.994 8.17133 116.13 9.226 116.13 10.318C116.13 11.41 115.994 12.4693 115.724 13.496C115.453 14.5133 115.005 15.5867 114.38 16.716L113.414 16.324Z" fill="black"/>
</svg>
